<?xml version="1.0" standalone="no"?>
<!DOCTYPE svg PUBLIC "-//W3C//DTD SVG 1.1//EN" "http://www.w3.org/Graphics/SVG/1.1/DTD/svg11.dtd" >
<svg>
<metadata>
Created by FontForge 20090622 at Mon Nov  7 18:44:00 2016
 By deploy user
URW Software, Copyright 1994 by URW
</metadata>
<defs>
<font id="FrizQua-BoldItal" horiz-adv-x="664" >
  <font-face 
    font-family="Friz Quadrata"
    font-weight="700"
    font-style="italic"
    font-stretch="normal"
    units-per-em="1000"
    panose-1="2 0 8 3 0 0 0 9 0 4"
    ascent="800"
    descent="-200"
    x-height="479"
    cap-height="695"
    bbox="-187 -230 1118 962"
    underline-thickness="112"
    underline-position="4"
    slope="-12"
    unicode-range="U+0020-U+FB02"
  />
<missing-glyph horiz-adv-x="245" 
 />
    <glyph glyph-name="fi" unicode="fi" horiz-adv-x="653" 
d="M587 722q38 0 61.5 -24t23.5 -65q0 -48 -27.5 -78.5t-70.5 -30.5q-42 0 -66 25.5t-24 68.5q0 48 27.5 76t75.5 28zM418 479q122 1 151 3q26 2 40.5 5.5t31.5 12.5l-75 -339q-7 -29 -7 -43q0 -30 30 -30q11 0 19.5 2t22.5 7l-71 -91q-26 -12 -43.5 -16t-40.5 -4
q-47 0 -71.5 24t-24.5 69v15t1.5 13.5l4 19.5t7.5 34l50 229h-154l-67 -300q-18 -85 -43 -145t-58 -100q-28 -34 -73.5 -54t-94.5 -20q-57 0 -106 23l55 64q14 -8 22 -11t19 -3q39 0 56 46l7 19.5t7 22t9.5 37.5l15.5 67l78 354h-68l89 92q6 33 13.5 58t17 44.5t21.5 35.5
t28 30q29 27 76.5 43t96.5 16q14 0 31 -1.5t36 -3.5l-56 -111q-15 19 -33 19q-17 0 -27 -15t-18 -52l-14 -66h109z" />
    <glyph glyph-name="fl" unicode="fl" horiz-adv-x="644" 
d="M400 479l-26 -115q-8 15 -19.5 20.5t-35.5 5.5h-30l-67 -300q-19 -86 -43.5 -146t-57.5 -99q-28 -34 -74 -54.5t-94 -20.5q-55 0 -106 24l55 64q14 -8 22 -11t19 -3q39 0 56 46l7 19.5t6.5 22t9 37.5l15.5 67l79 354h-68l89 92q6 32 13.5 57t16.5 44.5t21 35.5t28 31
q65 59 180 59h21t23 -1t39 -3.5t70 -6.5q30 -3 54 -3q23 0 43 4t42 15l-122 -553q-7 -29 -7 -43q0 -30 30 -30q11 0 19.5 2t22.5 7l-71 -91q-43 -20 -86 -20t-68.5 25t-25.5 67v15t1.5 14t4 20t7.5 34l95 430q-29 30 -81 30q-38 0 -56 -16.5t-28 -59.5l-14 -66h91z" />
    <glyph glyph-name=".notdef" horiz-adv-x="245" 
 />
    <glyph glyph-name=".null" horiz-adv-x="0" 
 />
    <glyph glyph-name="nonmarkingreturn" horiz-adv-x="245" 
 />
    <glyph glyph-name="space" unicode=" " horiz-adv-x="245" 
 />
    <glyph glyph-name="Atilde" unicode="&#xc3;" horiz-adv-x="682" 
d="M662 896q-17 -33 -32 -55.5t-30 -35.5t-31.5 -18.5t-36.5 -5.5q-9 0 -16.5 0.5t-19 2.5t-29.5 6t-46 11q-32 8 -53 11t-43 3q-33 0 -55 -7t-48 -25l18.5 35t13.5 23.5t11.5 16l12.5 14.5q14 16 35.5 25.5t43.5 9.5q18 0 41.5 -4t70.5 -16q37 -9 56.5 -12t39.5 -3
q32 0 54.5 8t48.5 28zM410 304l-33 229l-129 -229h162zM633 107q4 -25 7.5 -40.5t8 -27t11 -20t17.5 -19.5h-278q27 20 36 32t9 28q0 13 -3 30l-2 17l-14 100h-231l-40 -71q-24 -42 -33.5 -63t-9.5 -33q0 -8 4.5 -15.5t20.5 -24.5h-210q16 10 26 18t21 22.5t26 39l39 66.5
l235 403q18 31 24.5 48.5t6.5 35.5q0 20 -8 34t-26 28h259z" />
    <glyph glyph-name="Aring" unicode="&#xc5;" horiz-adv-x="682" 
d="M458 899q-22 0 -36.5 -14.5t-14.5 -37.5q0 -20 12.5 -32.5t34.5 -12.5q23 0 37 15.5t14 39.5q0 42 -47 42zM467 962q49 0 78.5 -27.5t29.5 -72.5q0 -56 -35.5 -90t-92.5 -34q-51 0 -79.5 27t-28.5 75q0 54 35.5 88t92.5 34zM410 304l-33 229l-129 -229h162zM633 107
q4 -25 7.5 -40.5t8 -27t11 -20t17.5 -19.5h-278q27 20 36 32t9 28q0 13 -3 30l-2 17l-14 100h-231l-40 -71q-24 -42 -33.5 -63t-9.5 -33q0 -8 4.5 -15.5t20.5 -24.5h-210q16 10 26 18t21 22.5t26 39l39 66.5l235 403q18 31 24.5 48.5t6.5 35.5q0 20 -8 34t-26 28h259z" />
    <glyph glyph-name="Edieresis" unicode="&#xcb;" horiz-adv-x="536" 
d="M479 924q32 0 51 -19t19 -52q0 -39 -23.5 -63.5t-61.5 -24.5q-34 0 -54 20t-20 55q0 38 24.5 61t64.5 23zM277 924q32 0 51 -19t19 -52q0 -39 -23.5 -63.5t-61.5 -24.5q-35 0 -54.5 20t-19.5 55q0 38 24.5 61t64.5 23zM507 538q-6 19 -13.5 30.5t-23.5 17.5t-44.5 7.5
t-74.5 1.5l-40 -178h66q32 0 49.5 2t34.5 7l-35 -160q-4 16 -8.5 25.5t-12.5 14.5t-22 6.5t-36 1.5h-59l-43 -195q27 -12 51.5 -16.5t63.5 -4.5q30 0 52 2.5t42 9.5t40 19t45 31l-82 -160h-477q18 14 30.5 27.5t22 30.5t16.5 39.5t14 55.5l86 389q13 56 13 87
q0 16 -5.5 28.5t-22.5 37.5h407z" />
    <glyph glyph-name="Eacute" unicode="&#xc9;" horiz-adv-x="536" 
d="M590 857l-271 -106l-60 23l258 167zM507 538q-6 19 -13.5 30.5t-23.5 17.5t-44.5 7.5t-74.5 1.5l-40 -178h66q32 0 49.5 2t34.5 7l-35 -160q-4 16 -8.5 25.5t-12.5 14.5t-22 6.5t-36 1.5h-59l-43 -195q27 -12 51.5 -16.5t63.5 -4.5q30 0 52 2.5t42 9.5t40 19t45 31
l-82 -160h-477q18 14 30.5 27.5t22 30.5t16.5 39.5t14 55.5l86 389q13 56 13 87q0 16 -5.5 28.5t-22.5 37.5h407z" />
    <glyph glyph-name="Egrave" unicode="&#xc8;" horiz-adv-x="536" 
d="M456 779l-49 -30l-266 105l70 87zM507 538q-6 19 -13.5 30.5t-23.5 17.5t-44.5 7.5t-74.5 1.5l-40 -178h66q32 0 49.5 2t34.5 7l-35 -160q-4 16 -8.5 25.5t-12.5 14.5t-22 6.5t-36 1.5h-59l-43 -195q27 -12 51.5 -16.5t63.5 -4.5q30 0 52 2.5t42 9.5t40 19t45 31
l-82 -160h-477q18 14 30.5 27.5t22 30.5t16.5 39.5t14 55.5l86 389q13 56 13 87q0 16 -5.5 28.5t-22.5 37.5h407z" />
    <glyph glyph-name="Ecircumflex" unicode="&#xca;" horiz-adv-x="536" 
d="M554 780l-38 -25l-163 63l-162 -62l-44 30l230 150zM507 538q-6 19 -13.5 30.5t-23.5 17.5t-44.5 7.5t-74.5 1.5l-40 -178h66q32 0 49.5 2t34.5 7l-35 -160q-4 16 -8.5 25.5t-12.5 14.5t-22 6.5t-36 1.5h-59l-43 -195q27 -12 51.5 -16.5t63.5 -4.5q30 0 52 2.5t42 9.5
t40 19t45 31l-82 -160h-477q18 14 30.5 27.5t22 30.5t16.5 39.5t14 55.5l86 389q13 56 13 87q0 16 -5.5 28.5t-22.5 37.5h407z" />
    <glyph glyph-name="Idieresis" unicode="&#xcf;" horiz-adv-x="351" 
d="M412 923q32 0 50.5 -18.5t18.5 -50.5q0 -38 -23 -62.5t-60 -24.5q-34 0 -53.5 19.5t-19.5 53.5q0 37 24.5 60t62.5 23zM231 923q32 0 50.5 -18.5t18.5 -50.5q0 -38 -23 -62.5t-60 -24.5q-34 0 -53.5 19.5t-19.5 53.5q0 37 24.5 60t62.5 23zM-20 0q18 14 30.5 27.5
t22 30.5t16.5 39.5t14 55.5l86 389q13 56 13 87q0 16 -5.5 28.5t-22.5 37.5h288q-18 -14 -31 -27.5t-22 -30.5t-16 -39.5t-14 -55.5l-86 -389q-7 -28 -10 -50.5t-3 -36.5q0 -17 5.5 -29.5t22.5 -36.5h-288z" />
    <glyph glyph-name="Iacute" unicode="&#xcd;" horiz-adv-x="351" 
d="M498 857l-271 -106l-60 23l258 167zM-20 0q18 14 30.5 27.5t22 30.5t16.5 39.5t14 55.5l86 389q13 56 13 87q0 16 -5.5 28.5t-22.5 37.5h288q-18 -14 -31 -27.5t-22 -30.5t-16 -39.5t-14 -55.5l-86 -389q-7 -28 -10 -50.5t-3 -36.5q0 -17 5.5 -29.5t22.5 -36.5h-288z" />
    <glyph glyph-name="Igrave" unicode="&#xcc;" horiz-adv-x="351" 
d="M386 779l-49 -30l-266 105l70 87zM-20 0q18 14 30.5 27.5t22 30.5t16.5 39.5t14 55.5l86 389q13 56 13 87q0 16 -5.5 28.5t-22.5 37.5h288q-18 -14 -31 -27.5t-22 -30.5t-16 -39.5t-14 -55.5l-86 -389q-7 -28 -10 -50.5t-3 -36.5q0 -17 5.5 -29.5t22.5 -36.5h-288z" />
    <glyph glyph-name="Icircumflex" unicode="&#xce;" horiz-adv-x="351" 
d="M473 780l-38 -25l-143 63l-140 -62l-44 30l209 150zM-20 0q18 14 30.5 27.5t22 30.5t16.5 39.5t14 55.5l86 389q13 56 13 87q0 16 -5.5 28.5t-22.5 37.5h288q-18 -14 -31 -27.5t-22 -30.5t-16 -39.5t-14 -55.5l-86 -389q-7 -28 -10 -50.5t-3 -36.5q0 -17 5.5 -29.5
t22.5 -36.5h-288z" />
    <glyph glyph-name="Ntilde" unicode="&#xd1;" horiz-adv-x="713" 
d="M713 896q-17 -33 -32 -55.5t-30 -35.5t-31.5 -18.5t-36.5 -5.5q-9 0 -16.5 0.5t-19 2.5t-29.5 6t-46 11q-32 8 -53 11t-43 3q-33 0 -55 -7t-48 -25l18.5 35t13.5 23.5t11.5 16l12.5 14.5q14 16 35.5 25.5t43.5 9.5q18 0 41.5 -4t70.5 -16q37 -9 56.5 -12t39.5 -3
q32 0 54.5 8t48.5 28zM636 0q-16 -4 -30 -5.5t-32 -1.5q-43 0 -74 8t-56 30.5t-47.5 62t-48.5 101.5l-116 273l-70 -315q-7 -32 -10 -52.5t-3 -34.5q0 -17 5.5 -30t22.5 -36h-204q18 14 30.5 27.5t22 30.5t16.5 39.5t14 55.5l86 389q13 56 13 87q0 18 -6.5 33t-23.5 33h228
q4 -14 12 -38t19 -51l151 -365l67 301q13 59 13 87q0 17 -5.5 29.5t-22.5 36.5h204q-18 -14 -30.5 -27.5t-22 -30.5t-16.5 -39.5t-14 -55.5l-105 -475z" />
    <glyph glyph-name="Odieresis" unicode="&#xd6;" horiz-adv-x="728" 
d="M591 924q32 0 51 -19t19 -52q0 -39 -23.5 -63.5t-61.5 -24.5q-34 0 -54 20t-20 55q0 38 24.5 61t64.5 23zM389 924q32 0 51 -19t19 -52q0 -39 -23.5 -63.5t-61.5 -24.5q-35 0 -54.5 20t-19.5 55q0 38 24.5 61t64.5 23zM431 616q-76 0 -128 -123q-11 -26 -20 -57.5
t-15.5 -65t-10 -68.5t-3.5 -66q0 -73 25.5 -115t69.5 -42q82 0 134 131q10 25 18 55.5t14 63.5t9 66.5t3 63.5q0 157 -96 157zM454 709q136 0 210 -76q66 -66 66 -204q0 -99 -29 -181t-81.5 -140t-126 -90t-163.5 -32q-135 0 -206.5 72t-71.5 209q0 47 8 93t22.5 88t35.5 79
t48 67q103 115 288 115z" />
    <glyph glyph-name="Oacute" unicode="&#xd3;" horiz-adv-x="728" 
d="M687 857l-271 -106l-60 23l258 167zM431 616q-76 0 -128 -123q-11 -26 -20 -57.5t-15.5 -65t-10 -68.5t-3.5 -66q0 -73 25.5 -115t69.5 -42q82 0 134 131q10 25 18 55.5t14 63.5t9 66.5t3 63.5q0 157 -96 157zM454 709q136 0 210 -76q66 -66 66 -204q0 -99 -29 -181
t-81.5 -140t-126 -90t-163.5 -32q-135 0 -206.5 72t-71.5 209q0 47 8 93t22.5 88t35.5 79t48 67q103 115 288 115z" />
    <glyph glyph-name="Ograve" unicode="&#xd2;" horiz-adv-x="728" 
d="M575 779l-49 -30l-266 105l70 87zM431 616q-76 0 -128 -123q-11 -26 -20 -57.5t-15.5 -65t-10 -68.5t-3.5 -66q0 -73 25.5 -115t69.5 -42q82 0 134 131q10 25 18 55.5t14 63.5t9 66.5t3 63.5q0 157 -96 157zM454 709q136 0 210 -76q66 -66 66 -204q0 -99 -29 -181
t-81.5 -140t-126 -90t-163.5 -32q-135 0 -206.5 72t-71.5 209q0 47 8 93t22.5 88t35.5 79t48 67q103 115 288 115z" />
    <glyph glyph-name="Ocircumflex" unicode="&#xd4;" horiz-adv-x="728" 
d="M672 780l-38 -25l-163 63l-162 -62l-44 30l230 150zM431 616q-76 0 -128 -123q-11 -26 -20 -57.5t-15.5 -65t-10 -68.5t-3.5 -66q0 -73 25.5 -115t69.5 -42q82 0 134 131q10 25 18 55.5t14 63.5t9 66.5t3 63.5q0 157 -96 157zM454 709q136 0 210 -76q66 -66 66 -204
q0 -99 -29 -181t-81.5 -140t-126 -90t-163.5 -32q-135 0 -206.5 72t-71.5 209q0 47 8 93t22.5 88t35.5 79t48 67q103 115 288 115z" />
    <glyph glyph-name="Otilde" unicode="&#xd5;" horiz-adv-x="728" 
d="M693 896q-17 -33 -32 -55.5t-30 -35.5t-31.5 -18.5t-36.5 -5.5q-9 0 -16.5 0.5t-19 2.5t-29.5 6t-46 11q-32 8 -53 11t-43 3q-33 0 -55 -7t-48 -25l18.5 35t13.5 23.5t11.5 16l12.5 14.5q14 16 35.5 25.5t43.5 9.5q18 0 41.5 -4t70.5 -16q37 -9 56.5 -12t39.5 -3
q32 0 54.5 8t48.5 28zM431 616q-76 0 -128 -123q-11 -26 -20 -57.5t-15.5 -65t-10 -68.5t-3.5 -66q0 -73 25.5 -115t69.5 -42q82 0 134 131q10 25 18 55.5t14 63.5t9 66.5t3 63.5q0 157 -96 157zM454 709q136 0 210 -76q66 -66 66 -204q0 -99 -29 -181t-81.5 -140t-126 -90
t-163.5 -32q-135 0 -206.5 72t-71.5 209q0 47 8 93t22.5 88t35.5 79t48 67q103 115 288 115z" />
    <glyph glyph-name="Udieresis" unicode="&#xdc;" horiz-adv-x="724" 
d="M597 924q32 0 51 -19t19 -52q0 -39 -23.5 -63.5t-61.5 -24.5q-34 0 -54 20t-20 55q0 38 24.5 61t64.5 23zM395 924q32 0 51 -19t19 -52q0 -39 -23.5 -63.5t-61.5 -24.5q-35 0 -54.5 20t-19.5 55q0 38 24.5 61t64.5 23zM415 66q-25 -23 -46.5 -38.5t-43.5 -24.5t-47.5 -13
t-57.5 -4q-41 0 -69.5 8.5t-50.5 26.5q-23 19 -35.5 45.5t-12.5 55.5q0 9 0.5 16.5t2 17t4 22l6.5 31.5l74 333q13 59 13 87q0 17 -5.5 29.5t-22.5 36.5h288q-18 -14 -31 -27.5t-22 -30.5t-16 -39.5t-14 -55.5l-58 -259q-5 -25 -9 -43t-6 -32t-3 -24.5t-1 -19.5
q0 -32 20 -50t55 -18q34 0 60.5 15t40.5 42q9 17 15.5 38t14.5 57l65 294q7 29 10 51t3 36q0 17 -5.5 30t-22.5 36h288q-18 -14 -31 -27.5t-22 -30.5t-16 -39.5t-14 -55.5l-86 -389q-13 -56 -13 -87q0 -17 5.5 -30t22.5 -36h-251z" />
    <glyph glyph-name="Uacute" unicode="&#xda;" horiz-adv-x="724" 
d="M686 857l-271 -106l-60 23l258 167zM415 66q-25 -23 -46.5 -38.5t-43.5 -24.5t-47.5 -13t-57.5 -4q-41 0 -69.5 8.5t-50.5 26.5q-23 19 -35.5 45.5t-12.5 55.5q0 9 0.5 16.5t2 17t4 22l6.5 31.5l74 333q13 59 13 87q0 17 -5.5 29.5t-22.5 36.5h288q-18 -14 -31 -27.5
t-22 -30.5t-16 -39.5t-14 -55.5l-58 -259q-5 -25 -9 -43t-6 -32t-3 -24.5t-1 -19.5q0 -32 20 -50t55 -18q34 0 60.5 15t40.5 42q9 17 15.5 38t14.5 57l65 294q7 29 10 51t3 36q0 17 -5.5 30t-22.5 36h288q-18 -14 -31 -27.5t-22 -30.5t-16 -39.5t-14 -55.5l-86 -389
q-13 -56 -13 -87q0 -17 5.5 -30t22.5 -36h-251z" />
    <glyph glyph-name="Ugrave" unicode="&#xd9;" horiz-adv-x="724" 
d="M573 779l-49 -30l-266 105l70 87zM415 66q-25 -23 -46.5 -38.5t-43.5 -24.5t-47.5 -13t-57.5 -4q-41 0 -69.5 8.5t-50.5 26.5q-23 19 -35.5 45.5t-12.5 55.5q0 9 0.5 16.5t2 17t4 22l6.5 31.5l74 333q13 59 13 87q0 17 -5.5 29.5t-22.5 36.5h288q-18 -14 -31 -27.5
t-22 -30.5t-16 -39.5t-14 -55.5l-58 -259q-5 -25 -9 -43t-6 -32t-3 -24.5t-1 -19.5q0 -32 20 -50t55 -18q34 0 60.5 15t40.5 42q9 17 15.5 38t14.5 57l65 294q7 29 10 51t3 36q0 17 -5.5 30t-22.5 36h288q-18 -14 -31 -27.5t-22 -30.5t-16 -39.5t-14 -55.5l-86 -389
q-13 -56 -13 -87q0 -17 5.5 -30t22.5 -36h-251z" />
    <glyph glyph-name="Ucircumflex" unicode="&#xdb;" horiz-adv-x="724" 
d="M686 780l-38 -25l-163 63l-162 -62l-44 30l230 150zM415 66q-25 -23 -46.5 -38.5t-43.5 -24.5t-47.5 -13t-57.5 -4q-41 0 -69.5 8.5t-50.5 26.5q-23 19 -35.5 45.5t-12.5 55.5q0 9 0.5 16.5t2 17t4 22l6.5 31.5l74 333q13 59 13 87q0 17 -5.5 29.5t-22.5 36.5h288
q-18 -14 -31 -27.5t-22 -30.5t-16 -39.5t-14 -55.5l-58 -259q-5 -25 -9 -43t-6 -32t-3 -24.5t-1 -19.5q0 -32 20 -50t55 -18q34 0 60.5 15t40.5 42q9 17 15.5 38t14.5 57l65 294q7 29 10 51t3 36q0 17 -5.5 30t-22.5 36h288q-18 -14 -31 -27.5t-22 -30.5t-16 -39.5
t-14 -55.5l-86 -389q-13 -56 -13 -87q0 -17 5.5 -30t22.5 -36h-251z" />
    <glyph glyph-name="Ydieresis" unicode="&#x178;" horiz-adv-x="608" 
d="M530 924q32 0 51 -19t19 -52q0 -39 -23.5 -63.5t-61.5 -24.5q-34 0 -54 20t-20 55q0 38 24.5 61t64.5 23zM328 924q32 0 51 -19t19 -52q0 -39 -23.5 -63.5t-61.5 -24.5q-35 0 -54.5 20t-19.5 55q0 38 24.5 61t64.5 23zM515 607q11 18 18 32.5t7 22.5q0 16 -20 33h187
l-38.5 -49.5l-25.5 -33.5l-216 -299l-36 -160q-5 -26 -8.5 -49t-3.5 -38q0 -17 5 -30t22 -36h-281q18 14 31 27.5t22.5 30.5t16.5 40t14 55l35 159q-11 44 -32.5 98.5t-48 107.5t-54.5 99t-52 73q35 11 57 15t48 4q31 0 55.5 -6t44.5 -19.5t36.5 -35.5t32.5 -54l8.5 -19
t11.5 -27l18 -44.5l29 -70.5z" />
    <glyph glyph-name="adieresis" unicode="&#xe4;" horiz-adv-x="597" 
d="M503 703q30 0 47 -17.5t17 -46.5q0 -35 -21.5 -57.5t-54.5 -22.5q-32 0 -50 18t-18 50q0 34 22.5 55t57.5 21zM305 703q29 0 46 -17t17 -47q0 -35 -21.5 -57.5t-54.5 -22.5q-32 0 -50 18t-18 50q0 34 22.5 55t58.5 21zM252 -5q-20 -5 -33 -6.5t-28 -1.5q-79 0 -124.5 47
t-45.5 129q0 35 8 70t22 68t34.5 62.5t45.5 52.5q42 39 97 57.5t127 18.5h21.5t18.5 -1t26 -3t44 -6q7 -1 15 -1.5t18 -0.5q26 0 46 4.5t45 15.5l-75 -339q-3 -15 -4.5 -24.5t-1.5 -17.5q0 -31 33 -31q13 0 22.5 2t23.5 7l-71 -91q-26 -11 -44.5 -15.5t-41.5 -4.5
q-51 0 -78 23.5t-27 68.5q0 9 0.5 15.5t1.5 15t3.5 20.5t7.5 32l50 225q-17 10 -27.5 13.5t-22.5 3.5q-20 0 -40 -12.5t-34 -33.5q-26 -39 -40.5 -88.5t-14.5 -97.5q0 -41 20 -64.5t55 -23.5h9t10 2z" />
    <glyph glyph-name="aacute" unicode="&#xe1;" horiz-adv-x="597" 
d="M568 687l-237 -143l-60 11l214 199zM252 -5q-20 -5 -33 -6.5t-28 -1.5q-79 0 -124.5 47t-45.5 129q0 35 8 70t22 68t34.5 62.5t45.5 52.5q42 39 97 57.5t127 18.5h21.5t18.5 -1t26 -3t44 -6q7 -1 15 -1.5t18 -0.5q26 0 46 4.5t45 15.5l-75 -339q-3 -15 -4.5 -24.5
t-1.5 -17.5q0 -31 33 -31q13 0 22.5 2t23.5 7l-71 -91q-26 -11 -44.5 -15.5t-41.5 -4.5q-51 0 -78 23.5t-27 68.5q0 9 0.5 15.5t1.5 15t3.5 20.5t7.5 32l50 225q-17 10 -27.5 13.5t-22.5 3.5q-20 0 -40 -12.5t-34 -33.5q-26 -39 -40.5 -88.5t-14.5 -97.5q0 -41 20 -64.5
t55 -23.5h9t10 2z" />
    <glyph glyph-name="agrave" unicode="&#xe0;" horiz-adv-x="597" 
d="M429 562l-51 -20l-232 142l80 71zM252 -5q-20 -5 -33 -6.5t-28 -1.5q-79 0 -124.5 47t-45.5 129q0 35 8 70t22 68t34.5 62.5t45.5 52.5q42 39 97 57.5t127 18.5h21.5t18.5 -1t26 -3t44 -6q7 -1 15 -1.5t18 -0.5q26 0 46 4.5t45 15.5l-75 -339q-3 -15 -4.5 -24.5
t-1.5 -17.5q0 -31 33 -31q13 0 22.5 2t23.5 7l-71 -91q-26 -11 -44.5 -15.5t-41.5 -4.5q-51 0 -78 23.5t-27 68.5q0 9 0.5 15.5t1.5 15t3.5 20.5t7.5 32l50 225q-17 10 -27.5 13.5t-22.5 3.5q-20 0 -40 -12.5t-34 -33.5q-26 -39 -40.5 -88.5t-14.5 -97.5q0 -41 20 -64.5
t55 -23.5h9t10 2z" />
    <glyph glyph-name="acircumflex" unicode="&#xe2;" horiz-adv-x="597" 
d="M551 565l-42 -24l-128 79l-134 -78l-47 28l206 168zM252 -5q-20 -5 -33 -6.5t-28 -1.5q-79 0 -124.5 47t-45.5 129q0 35 8 70t22 68t34.5 62.5t45.5 52.5q42 39 97 57.5t127 18.5h21.5t18.5 -1t26 -3t44 -6q7 -1 15 -1.5t18 -0.5q26 0 46 4.5t45 15.5l-75 -339
q-3 -15 -4.5 -24.5t-1.5 -17.5q0 -31 33 -31q13 0 22.5 2t23.5 7l-71 -91q-26 -11 -44.5 -15.5t-41.5 -4.5q-51 0 -78 23.5t-27 68.5q0 9 0.5 15.5t1.5 15t3.5 20.5t7.5 32l50 225q-17 10 -27.5 13.5t-22.5 3.5q-20 0 -40 -12.5t-34 -33.5q-26 -39 -40.5 -88.5t-14.5 -97.5
q0 -41 20 -64.5t55 -23.5h9t10 2z" />
    <glyph glyph-name="atilde" unicode="&#xe3;" horiz-adv-x="597" 
d="M190 568l19.5 35t13.5 23t11 15.5t12 14.5q14 16 35.5 25.5t41.5 9.5q9 0 15 -0.5t14.5 -2.5t22 -6l37.5 -11q25 -8 42.5 -11.5t33.5 -3.5q28 0 51 8.5t47 27.5q-18 -35 -29 -52.5t-23 -34.5q-14 -18 -37 -29t-46 -11q-8 0 -14 0.5t-14 2.5t-20.5 6t-33.5 10
q-51 16 -83 16q-26 0 -49 -7.5t-47 -24.5zM252 -5q-20 -5 -33 -6.5t-28 -1.5q-79 0 -124.5 47t-45.5 129q0 35 8 70t22 68t34.5 62.5t45.5 52.5q42 39 97 57.5t127 18.5h21.5t18.5 -1t26 -3t44 -6q7 -1 15 -1.5t18 -0.5q26 0 46 4.5t45 15.5l-75 -339q-3 -15 -4.5 -24.5
t-1.5 -17.5q0 -31 33 -31q13 0 22.5 2t23.5 7l-71 -91q-26 -11 -44.5 -15.5t-41.5 -4.5q-51 0 -78 23.5t-27 68.5q0 9 0.5 15.5t1.5 15t3.5 20.5t7.5 32l50 225q-17 10 -27.5 13.5t-22.5 3.5q-20 0 -40 -12.5t-34 -33.5q-26 -39 -40.5 -88.5t-14.5 -97.5q0 -41 20 -64.5
t55 -23.5h9t10 2z" />
    <glyph glyph-name="aring" unicode="&#xe5;" horiz-adv-x="597" 
d="M397 699q-22 0 -36.5 -14.5t-14.5 -36.5q0 -21 13 -33.5t34 -12.5q23 0 37 15.5t14 39.5q0 20 -12 31t-35 11zM406 763q49 0 78.5 -27.5t29.5 -73.5q0 -55 -35 -89.5t-92 -34.5q-52 0 -80.5 27t-28.5 76q0 54 35.5 88t92.5 34zM252 -5q-20 -5 -33 -6.5t-28 -1.5
q-79 0 -124.5 47t-45.5 129q0 35 8 70t22 68t34.5 62.5t45.5 52.5q42 39 97 57.5t127 18.5h21.5t18.5 -1t26 -3t44 -6q7 -1 15 -1.5t18 -0.5q26 0 46 4.5t45 15.5l-75 -339q-3 -15 -4.5 -24.5t-1.5 -17.5q0 -31 33 -31q13 0 22.5 2t23.5 7l-71 -91q-26 -11 -44.5 -15.5
t-41.5 -4.5q-51 0 -78 23.5t-27 68.5q0 9 0.5 15.5t1.5 15t3.5 20.5t7.5 32l50 225q-17 10 -27.5 13.5t-22.5 3.5q-20 0 -40 -12.5t-34 -33.5q-26 -39 -40.5 -88.5t-14.5 -97.5q0 -41 20 -64.5t55 -23.5h9t10 2z" />
    <glyph glyph-name="edieresis" unicode="&#xeb;" horiz-adv-x="509" 
d="M452 703q30 0 47 -17.5t17 -46.5q0 -35 -21.5 -57.5t-54.5 -22.5q-32 0 -50 18t-18 50q0 34 22.5 55t57.5 21zM254 703q29 0 46 -17t17 -47q0 -35 -21.5 -57.5t-54.5 -22.5q-32 0 -50 18t-18 50q0 34 22.5 55t58.5 21zM218 258q26 4 44 11.5t38 23.5q23 17 36 37.5
t13 37.5q0 12 -10 20t-24 8q-35 0 -61 -37.5t-36 -100.5zM432 36q-56 -26 -104.5 -37.5t-102.5 -11.5q-100 0 -153 46t-53 132q0 68 26 127.5t71 104t106 70t131 25.5q77 0 121.5 -28.5t44.5 -78.5q0 -46 -38 -88.5t-103 -68.5q-62 -25 -168 -35q1 -26 3.5 -40t7.5 -28
q8 -22 28.5 -35t46.5 -13q48 0 88 21t82 68z" />
    <glyph glyph-name="eacute" unicode="&#xe9;" horiz-adv-x="509" 
d="M537 687l-237 -143l-60 11l214 199zM217 258q26 4 44 11.5t38 23.5q23 17 36 37.5t13 37.5q0 12 -10 20t-24 8q-35 0 -61 -37.5t-36 -100.5zM431 36q-56 -26 -104.5 -37.5t-102.5 -11.5q-100 0 -153 46t-53 132q0 68 26 127.5t71 104t106 70t131 25.5q77 0 121.5 -28.5
t44.5 -78.5q0 -46 -38 -88.5t-103 -68.5q-62 -25 -168 -35q1 -26 3.5 -40t7.5 -28q8 -22 28.5 -35t46.5 -13q48 0 88 21t82 68z" />
    <glyph glyph-name="egrave" unicode="&#xe8;" horiz-adv-x="509" 
d="M411 565l-51 -20l-232 142l80 71zM218 258q26 4 44 11.5t38 23.5q23 17 36 37.5t13 37.5q0 12 -10 20t-24 8q-35 0 -61 -37.5t-36 -100.5zM432 36q-56 -26 -104.5 -37.5t-102.5 -11.5q-100 0 -153 46t-53 132q0 68 26 127.5t71 104t106 70t131 25.5q77 0 121.5 -28.5
t44.5 -78.5q0 -46 -38 -88.5t-103 -68.5q-62 -25 -168 -35q1 -26 3.5 -40t7.5 -28q8 -22 28.5 -35t46.5 -13q48 0 88 21t82 68z" />
    <glyph glyph-name="ecircumflex" unicode="&#xea;" horiz-adv-x="509" 
d="M521 565l-42 -24l-128 79l-134 -78l-47 28l206 168zM217 258q26 4 44 11.5t38 23.5q23 17 36 37.5t13 37.5q0 12 -10 20t-24 8q-35 0 -61 -37.5t-36 -100.5zM431 36q-56 -26 -104.5 -37.5t-102.5 -11.5q-100 0 -153 46t-53 132q0 68 26 127.5t71 104t106 70t131 25.5
q77 0 121.5 -28.5t44.5 -78.5q0 -46 -38 -88.5t-103 -68.5q-62 -25 -168 -35q1 -26 3.5 -40t7.5 -28q8 -22 28.5 -35t46.5 -13q48 0 88 21t82 68z" />
    <glyph glyph-name="idieresis" unicode="&#xef;" horiz-adv-x="316" 
d="M314 703q30 0 47 -17t17 -47q0 -35 -21.5 -57.5t-54.5 -22.5q-32 0 -50 18t-18 50q0 34 22.5 55t57.5 21zM144 703q29 0 46 -17t17 -47q0 -35 -21.5 -57.5t-54.5 -22.5q-32 0 -50 18t-18 50q0 34 22.5 55t58.5 21zM229 161q-5 -19 -6 -27.5t-1 -15.5q0 -30 31 -30
q10 0 19 2t23 7l-71 -91q-25 -11 -44.5 -15.5t-45.5 -4.5q-94 0 -94 94q0 9 0.5 15t1.5 14.5t3.5 20t7.5 31.5l42 190q12 55 12 77q0 14 -6 26t-20 27q31 0 50.5 0.5t34.5 0.5t29.5 0.5t35.5 0.5q26 2 41 5t32 12z" />
    <glyph glyph-name="iacute" unicode="&#xed;" horiz-adv-x="316" 
d="M427 687l-237 -143l-60 11l214 199zM229 161q-5 -19 -6 -27.5t-1 -15.5q0 -30 31 -30q10 0 19 2t23 7l-71 -91q-25 -11 -44.5 -15.5t-45.5 -4.5q-94 0 -94 94q0 9 0.5 15t1.5 14.5t3.5 20t7.5 31.5l42 190q12 55 12 77q0 14 -6 26t-20 27q31 0 50.5 0.5t34.5 0.5
t29.5 0.5t35.5 0.5q26 2 41 5t32 12z" />
    <glyph glyph-name="igrave" unicode="&#xec;" horiz-adv-x="316" 
d="M288 562l-51 -20l-232 142l80 71zM229 161q-5 -19 -6 -27.5t-1 -15.5q0 -30 31 -30q10 0 19 2t23 7l-71 -91q-25 -11 -44.5 -15.5t-45.5 -4.5q-94 0 -94 94q0 9 0.5 15t1.5 14.5t3.5 20t7.5 31.5l42 190q12 55 12 77q0 14 -6 26t-20 27q31 0 50.5 0.5t34.5 0.5t29.5 0.5
t35.5 0.5q26 2 41 5t32 12z" />
    <glyph glyph-name="icircumflex" unicode="&#xee;" horiz-adv-x="316" 
d="M229 161q-5 -19 -6 -27.5t-1 -15.5q0 -30 31 -30q10 0 19 2t23 7l-71 -91q-25 -11 -44.5 -15.5t-45.5 -4.5q-94 0 -94 94q0 9 0.5 15t1.5 14.5t3.5 20t7.5 31.5l42 190q12 55 12 77q0 14 -6 26t-20 27q31 0 50.5 0.5t34.5 0.5t29.5 0.5t35.5 0.5q26 2 41 5t32 12z
M367 565l-42 -24l-107 79l-114 -78l-47 28l185 168z" />
    <glyph glyph-name="ntilde" unicode="&#xf1;" horiz-adv-x="607" 
d="M194 568l19.5 35t13.5 23t11 15.5t12 14.5q14 16 35.5 25.5t41.5 9.5q9 0 15 -0.5t14.5 -2.5t22 -6l37.5 -11q25 -8 42.5 -11.5t33.5 -3.5q28 0 51 8.5t47 27.5q-18 -35 -29 -52.5t-23 -34.5q-14 -18 -37 -29t-46 -11q-8 0 -14 0.5t-14 2.5t-20.5 6t-33.5 10
q-51 16 -83 16q-26 0 -49 -7.5t-47 -24.5zM289 423q40 42 71 58t72 16q29 0 53.5 -9.5t42.5 -26t28 -39t10 -49.5q0 -16 -2.5 -33t-8.5 -43l-30 -136q-3 -16 -4.5 -25t-1.5 -17q0 -31 30 -31q11 0 19.5 2t22.5 7l-71 -91q-24 -11 -43 -15.5t-41 -4.5q-48 0 -74 24.5
t-26 67.5v15t1.5 14t4 20t7.5 34l28 126q5 20 6.5 32t1.5 20q0 18 -11.5 28.5t-31.5 10.5q-33 0 -53.5 -26.5t-34.5 -86.5l-25 -112q-7 -32 -11 -58.5t-4 -40.5q0 -13 3.5 -25t12.5 -29h-246q13 13 23 25.5t17.5 29.5t14 40.5t14.5 57.5l44 198q12 57 12 77q0 14 -6 26
t-20 27h50.5h34.5t29.5 0.5t35.5 0.5q26 2 41 5.5t32 12.5z" />
    <glyph glyph-name="odieresis" unicode="&#xf6;" horiz-adv-x="587" 
d="M463 703q30 0 47 -17.5t17 -46.5q0 -35 -21.5 -57.5t-54.5 -22.5q-32 0 -50 18t-18 50q0 34 22.5 55t57.5 21zM265 703q29 0 46 -17t17 -47q0 -35 -21.5 -57.5t-54.5 -22.5q-32 0 -50 18t-18 50q0 34 22.5 55t58.5 21zM325 403q-23 0 -43.5 -18t-35.5 -49.5t-24 -73
t-9 -87.5q0 -99 60 -99q52 0 81 77q13 33 21 76.5t8 78.5q0 95 -58 95zM333 492q114 0 174 -53.5t60 -153.5q0 -76 -33.5 -143t-91.5 -107q-36 -25 -77.5 -36.5t-95.5 -11.5q-119 0 -179.5 51.5t-60.5 153.5q0 69 25.5 130.5t70.5 101.5q77 68 208 68z" />
    <glyph glyph-name="oacute" unicode="&#xf3;" horiz-adv-x="587" 
d="M562 687l-237 -143l-60 11l214 199zM325 403q-23 0 -43.5 -18t-35.5 -49.5t-24 -73t-9 -87.5q0 -99 60 -99q52 0 81 77q13 33 21 76.5t8 78.5q0 95 -58 95zM333 492q114 0 174 -53.5t60 -153.5q0 -76 -33.5 -143t-91.5 -107q-36 -25 -77.5 -36.5t-95.5 -11.5
q-119 0 -179.5 51.5t-60.5 153.5q0 69 25.5 130.5t70.5 101.5q77 68 208 68z" />
    <glyph glyph-name="ograve" unicode="&#xf2;" horiz-adv-x="587" 
d="M423 562l-51 -20l-232 142l80 71zM325 403q-23 0 -43.5 -18t-35.5 -49.5t-24 -73t-9 -87.5q0 -99 60 -99q52 0 81 77q13 33 21 76.5t8 78.5q0 95 -58 95zM333 492q114 0 174 -53.5t60 -153.5q0 -76 -33.5 -143t-91.5 -107q-36 -25 -77.5 -36.5t-95.5 -11.5
q-119 0 -179.5 51.5t-60.5 153.5q0 69 25.5 130.5t70.5 101.5q77 68 208 68z" />
    <glyph glyph-name="ocircumflex" unicode="&#xf4;" horiz-adv-x="587" 
d="M516 565l-42 -24l-128 79l-134 -78l-47 28l206 168zM325 403q-23 0 -43.5 -18t-35.5 -49.5t-24 -73t-9 -87.5q0 -99 60 -99q52 0 81 77q13 33 21 76.5t8 78.5q0 95 -58 95zM333 492q114 0 174 -53.5t60 -153.5q0 -76 -33.5 -143t-91.5 -107q-36 -25 -77.5 -36.5
t-95.5 -11.5q-119 0 -179.5 51.5t-60.5 153.5q0 69 25.5 130.5t70.5 101.5q77 68 208 68z" />
    <glyph glyph-name="otilde" unicode="&#xf5;" horiz-adv-x="587" 
d="M163 568l19.5 35t13.5 23t11 15.5t12 14.5q14 16 35.5 25.5t41.5 9.5q9 0 15 -0.5t14.5 -2.5t22 -6l37.5 -11q25 -8 42.5 -11.5t33.5 -3.5q28 0 51 8.5t47 27.5q-18 -35 -29 -52.5t-23 -34.5q-14 -18 -37 -29t-46 -11q-8 0 -14 0.5t-14 2.5t-20.5 6t-33.5 10
q-51 16 -83 16q-26 0 -49 -7.5t-47 -24.5zM325 403q-23 0 -43.5 -18t-35.5 -49.5t-24 -73t-9 -87.5q0 -99 60 -99q52 0 81 77q13 33 21 76.5t8 78.5q0 95 -58 95zM333 492q114 0 174 -53.5t60 -153.5q0 -76 -33.5 -143t-91.5 -107q-36 -25 -77.5 -36.5t-95.5 -11.5
q-119 0 -179.5 51.5t-60.5 153.5q0 69 25.5 130.5t70.5 101.5q77 68 208 68z" />
    <glyph glyph-name="udieresis" unicode="&#xfc;" horiz-adv-x="600" 
d="M483 703q30 0 47 -17.5t17 -46.5q0 -35 -21.5 -57.5t-54.5 -22.5q-32 0 -50 18t-18 50q0 34 22.5 55t57.5 21zM285 703q29 0 46 -17t17 -47q0 -35 -21.5 -57.5t-54.5 -22.5q-32 0 -50 18t-18 50q0 34 22.5 55t58.5 21zM517 7q-25 -11 -45.5 -15.5t-43.5 -4.5
q-90 0 -103 78q-65 -78 -155 -78q-27 0 -50 9t-40 25.5t-26.5 39t-9.5 48.5q0 12 1.5 23t6.5 34l41 185q4 21 7 33.5t4 20t1.5 12.5t0.5 11q0 14 -6 26t-21 27q31 0 51 0.5t35 0.5t29.5 0.5t35.5 0.5q26 2 40.5 5t32.5 12l-67 -301q-6 -27 -8 -39t-2 -21q0 -33 36 -33
q42 0 62 31q8 12 13 26.5t12 46.5l31 141q5 26 8.5 46t3.5 31q0 14 -6 26t-20 27q31 0 50.5 0.5t34.5 0.5t30 0.5t36 0.5q26 2 40.5 5t32.5 12l-73 -327q-4 -16 -6 -32t-2 -25q0 -27 29 -27q11 0 21 2t28 8z" />
    <glyph glyph-name="uacute" unicode="&#xfa;" horiz-adv-x="600" 
d="M569 687l-237 -143l-60 11l214 199zM517 7q-25 -11 -45.5 -15.5t-43.5 -4.5q-90 0 -103 78q-65 -78 -155 -78q-27 0 -50 9t-40 25.5t-26.5 39t-9.5 48.5q0 12 1.5 23t6.5 34l41 185q4 21 7 33.5t4 20t1.5 12.5t0.5 11q0 14 -6 26t-21 27q31 0 51 0.5t35 0.5t29.5 0.5
t35.5 0.5q26 2 40.5 5t32.5 12l-67 -301q-6 -27 -8 -39t-2 -21q0 -33 36 -33q42 0 62 31q8 12 13 26.5t12 46.5l31 141q5 26 8.5 46t3.5 31q0 14 -6 26t-20 27q31 0 50.5 0.5t34.5 0.5t30 0.5t36 0.5q26 2 40.5 5t32.5 12l-73 -327q-4 -16 -6 -32t-2 -25q0 -27 29 -27
q11 0 21 2t28 8z" />
    <glyph glyph-name="ugrave" unicode="&#xf9;" horiz-adv-x="600" 
d="M430 562l-51 -20l-232 142l80 71zM517 7q-25 -11 -45.5 -15.5t-43.5 -4.5q-90 0 -103 78q-65 -78 -155 -78q-27 0 -50 9t-40 25.5t-26.5 39t-9.5 48.5q0 12 1.5 23t6.5 34l41 185q4 21 7 33.5t4 20t1.5 12.5t0.5 11q0 14 -6 26t-21 27q31 0 51 0.5t35 0.5t29.5 0.5
t35.5 0.5q26 2 40.5 5t32.5 12l-67 -301q-6 -27 -8 -39t-2 -21q0 -33 36 -33q42 0 62 31q8 12 13 26.5t12 46.5l31 141q5 26 8.5 46t3.5 31q0 14 -6 26t-20 27q31 0 50.5 0.5t34.5 0.5t30 0.5t36 0.5q26 2 40.5 5t32.5 12l-73 -327q-4 -16 -6 -32t-2 -25q0 -27 29 -27
q11 0 21 2t28 8z" />
    <glyph glyph-name="ucircumflex" unicode="&#xfb;" horiz-adv-x="600" 
d="M529 565l-42 -24l-128 79l-134 -78l-47 28l206 168zM517 7q-25 -11 -45.5 -15.5t-43.5 -4.5q-90 0 -103 78q-65 -78 -155 -78q-27 0 -50 9t-40 25.5t-26.5 39t-9.5 48.5q0 12 1.5 23t6.5 34l41 185q4 21 7 33.5t4 20t1.5 12.5t0.5 11q0 14 -6 26t-21 27q31 0 51 0.5
t35 0.5t29.5 0.5t35.5 0.5q26 2 40.5 5t32.5 12l-67 -301q-6 -27 -8 -39t-2 -21q0 -33 36 -33q42 0 62 31q8 12 13 26.5t12 46.5l31 141q5 26 8.5 46t3.5 31q0 14 -6 26t-20 27q31 0 50.5 0.5t34.5 0.5t30 0.5t36 0.5q26 2 40.5 5t32.5 12l-73 -327q-4 -16 -6 -32t-2 -25
q0 -27 29 -27q11 0 21 2t28 8z" />
    <glyph glyph-name="ydieresis" unicode="&#xff;" horiz-adv-x="574" 
d="M463 703q30 0 47 -17.5t17 -46.5q0 -35 -21.5 -57.5t-54.5 -22.5q-32 0 -50 18t-18 50q0 34 22.5 55t57.5 21zM265 703q29 0 46 -17t17 -47q0 -35 -21.5 -57.5t-54.5 -22.5q-32 0 -50 18t-18 50q0 34 22.5 55t58.5 21zM483 56q-9 -39 -17 -68t-17.5 -52t-20.5 -41.5
t-25 -35.5q-33 -41 -84.5 -62t-115.5 -21q-44 0 -82 9t-65.5 25t-43 38.5t-15.5 48.5q0 35 24 57.5t62 22.5q41 0 74 -27q-26 -12 -26 -38q0 -19 17 -30.5t45 -11.5q32 0 53 17t36 55q5 13 11 37l17 70l7 35q-33 -36 -70.5 -52.5t-85.5 -16.5q-58 0 -90 26t-32 74
q0 17 2 33.5t9 45.5l35 157l6.5 33.5t3.5 20t1.5 12.5t0.5 11q0 14 -6 26.5t-20 26.5q31 0 50.5 0.5t34 0.5t28 0.5t34.5 0.5q26 2 40.5 5t32.5 12l-61 -273q-10 -43 -10 -61q0 -32 37 -32q19 0 33 4.5t24 16.5t17.5 32t14.5 51l25 113q6 27 9 42l4.5 22.5t2 11t0.5 8.5
q0 13 -6.5 23.5t-23.5 22.5q34 0 54.5 0.5t35.5 0.5t28.5 0.5t33.5 0.5q28 1 42 4.5t30 12.5z" />
    <glyph glyph-name="A" unicode="A" horiz-adv-x="682" 
d="M410 304l-33 229l-129 -229h162zM633 107q4 -25 7.5 -40.5t8 -27t11 -20t17.5 -19.5h-278q27 20 36 32t9 28q0 13 -3 30l-2 17l-14 100h-231l-40 -71q-24 -42 -33.5 -63t-9.5 -33q0 -8 4.5 -15.5t20.5 -24.5h-210q16 10 26 18t21 22.5t26 39l39 66.5l235 403
q18 31 24.5 48.5t6.5 35.5q0 20 -8 34t-26 28h259z" />
    <glyph glyph-name="B" unicode="B" horiz-adv-x="658" 
d="M239 102q16 -5 27 -6.5t26 -1.5q59 0 94.5 33.5t35.5 90.5q0 49 -31 77.5t-85 28.5h-9t-10 -2zM307 414q8 -1 14.5 -1.5t11.5 -0.5q51 0 82.5 37t31.5 95q0 36 -20 51.5t-65 15.5h-11zM397 695q42 0 66 -0.5t39.5 -1.5t26.5 -3t25 -6q42 -12 65.5 -45t23.5 -78
q0 -42 -16 -81.5t-42 -64.5q-20 -20 -44 -30t-63 -17q140 -15 140 -153q0 -62 -29.5 -112.5t-78.5 -73.5q-21 -10 -39 -15.5t-45.5 -8.5t-69 -4t-108.5 -1h-268q18 14 31 27.5t22 30.5t16 39.5t14 55.5l86 390q13 56 13 86q0 16 -5.5 28.5t-22.5 37.5h263z" />
    <glyph glyph-name="C" unicode="C" horiz-adv-x="631" 
d="M541 24q-45 -20 -87.5 -29t-94.5 -9q-72 0 -130 20.5t-98.5 58.5t-62 93t-21.5 123q0 97 37 184t103 145q112 99 291 99q24 0 45 -1.5t41 -4.5t40.5 -8.5t43.5 -13.5l-17 -147q-57 75 -147 75q-50 0 -93 -24.5t-74.5 -67t-49.5 -101t-18 -126.5q0 -97 44 -150.5
t123 -53.5q22 0 43.5 3.5t45 12t50.5 22.5t60 34z" />
    <glyph glyph-name="D" unicode="D" horiz-adv-x="721" 
d="M241 101q21 -6 35 -8t29 -2q46 0 86.5 28t70.5 76t47.5 112.5t17.5 138.5q0 166 -137 166q-11 0 -18 -1t-19 -4zM-20 0q18 14 31 27.5t22 30.5t16 39.5t14 55.5l86 389q13 58 13 87q0 16 -5.5 28.5t-22.5 37.5h303q67 0 113 -10.5t81 -34.5q48 -32 73 -89.5t25 -136.5
q0 -55 -12 -107t-34 -98t-53.5 -84.5t-71.5 -66.5q-26 -18 -53.5 -31t-60 -21.5t-70.5 -12t-85 -3.5h-309z" />
    <glyph glyph-name="E" unicode="E" horiz-adv-x="536" 
d="M507 538q-6 19 -13.5 30.5t-23.5 17.5t-44.5 7.5t-74.5 1.5l-40 -178h66q32 0 49.5 2t34.5 7l-35 -160q-4 16 -8.5 25.5t-12.5 14.5t-22 6.5t-36 1.5h-59l-43 -195q27 -12 51.5 -16.5t63.5 -4.5q30 0 52 2.5t42 9.5t40 19t45 31l-82 -160h-477q18 14 30.5 27.5t22 30.5
t16.5 39.5t14 55.5l86 389q13 56 13 87q0 16 -5.5 28.5t-22.5 37.5h407z" />
    <glyph glyph-name="F" unicode="F" horiz-adv-x="508" 
d="M528 539q-6 20 -13.5 31.5t-25.5 17t-50.5 6.5t-87.5 1l-41 -185h86q30 0 49 2t36 7l-36 -160q-4 16 -8.5 25.5t-12.5 14.5t-22 6.5t-36 1.5h-79l-34 -154q-7 -28 -10 -50.5t-3 -36.5q0 -17 5.5 -29.5t22.5 -36.5h-288q18 14 31 27.5t22 30.5t16 39.5t14 55.5l86 389
q13 56 13 87q0 16 -5.5 28.5t-22.5 37.5h428z" />
    <glyph glyph-name="G" unicode="G" horiz-adv-x="705" 
d="M664 524q-31 43 -73 64t-99 21q-54 0 -99 -22t-77.5 -62.5t-50 -97t-17.5 -125.5q0 -103 42.5 -161.5t117.5 -58.5q8 0 14 0.5t14 2.5l25 111q6 30 9.5 46t5 25.5t2 15t0.5 13.5q0 17 -7.5 30.5t-27.5 31.5h258q-9 -15 -14.5 -25t-9.5 -22t-8.5 -29.5t-10.5 -46.5
l-22 -98q-12 -56 -12 -88q0 -11 4 -27q-49 -17 -113 -26.5t-132 -9.5q-161 0 -249 79t-88 225q0 103 44.5 192.5t123.5 146.5q112 80 278 80q55 0 100 -7t93 -23z" />
    <glyph glyph-name="H" unicode="H" horiz-adv-x="743" 
d="M289 317l-36 -164q-6 -27 -9.5 -49.5t-3.5 -37.5q0 -17 5.5 -29.5t22.5 -36.5h-288q18 14 31 27.5t22 30.5t16 39.5t14 55.5l86 389q13 58 13 87q0 16 -5.5 28.5t-22.5 37.5h288q-18 -14 -30.5 -27.5t-22 -31t-16.5 -40.5t-14 -54l-25 -123h200l27 123q7 29 10 51t3 36
q0 16 -5.5 28.5t-22.5 37.5h288q-18 -14 -30.5 -27.5t-22 -30.5t-16.5 -39.5t-14 -55.5l-86 -389q-13 -58 -13 -87q0 -17 5.5 -30t22.5 -36h-288q18 14 31 27.5t22 30.5t16 39.5t14 55.5l36 164h-202z" />
    <glyph glyph-name="I" unicode="I" horiz-adv-x="351" 
d="M-20 0q18 14 30.5 27.5t22 30.5t16.5 39.5t14 55.5l86 389q13 56 13 87q0 16 -5.5 28.5t-22.5 37.5h288q-18 -14 -31 -27.5t-22 -30.5t-16 -39.5t-14 -55.5l-86 -389q-7 -28 -10 -50.5t-3 -36.5q0 -17 5.5 -29.5t22.5 -36.5h-288z" />
    <glyph glyph-name="J" unicode="J" horiz-adv-x="376" 
d="M278 107q-14 -62 -23.5 -100.5t-17 -63t-15.5 -40t-19 -31.5q-32 -45 -80.5 -66.5t-120.5 -21.5q-11 0 -21 0.5t-21.5 1.5t-25 2.5t-31.5 4.5q39 11 65 29t46.5 53.5t38.5 95t39 153.5l93 418q8 34 10.5 53t2.5 34q0 16 -5.5 28.5t-22.5 37.5h287q-18 -14 -30.5 -27.5
t-22 -30.5t-16.5 -39.5t-14 -55.5z" />
    <glyph glyph-name="K" unicode="K" horiz-adv-x="717" 
d="M762 695l-19.5 -17.5l-18.5 -16.5l-36 -34l-243 -229l43 -79l42.5 -76.5l42.5 -77.5q41 -75 71 -113.5t58 -50.5q-23 -5 -39.5 -7.5l-30.5 -4.5t-27 -2.5t-29 -0.5q-100 0 -138 38q-8 7 -12.5 13t-12 19t-20 37.5l-34.5 69.5l-72 144l-34 -154q-7 -28 -10 -50.5t-3 -36.5
q0 -17 5.5 -29.5t22.5 -36.5h-288q18 14 30.5 27.5t22 30.5t16.5 39.5t14 55.5l86 389q13 56 13 87q0 16 -5.5 28.5t-22.5 37.5h288q-18 -14 -31 -27.5t-22 -30.5t-16 -39.5t-14 -55.5l-32 -142l204 204l30.5 31t15.5 17t6 9t1 8q0 11 -15 26h213z" />
    <glyph glyph-name="L" unicode="L" horiz-adv-x="533" 
d="M245 119q23 -11 47 -16t59 -5q26 0 47.5 3t41 10t39.5 19.5t44 30.5l-82 -161h-461q18 14 30.5 27.5t22 30.5t16.5 39.5t14 55.5l86 389q13 58 13 87q0 16 -5.5 28.5t-22.5 37.5h288q-18 -14 -30.5 -27.5t-22 -30.5t-16.5 -39.5t-14 -55.5z" />
    <glyph glyph-name="M" unicode="M" horiz-adv-x="922" 
d="M398 5q-23 19 -37.5 34t-23.5 32t-15 39t-12 57l-52 278l-86 -300q-18 -65 -18 -86q0 -29 30 -59h-207q17 11 28 20.5t19 21.5t14.5 29t15.5 44l122 409l17 58.5t8.5 31.5t3 15t0.5 9q0 14 -6.5 25.5t-23.5 31.5h220q-1 -7 -1 -12v-8q0 -10 0.5 -19t2.5 -21l5 -30t9 -45
l53 -288l165 284q12 21 24 45q22 40 32 62l15 32h248q-18 -16 -30 -30t-19.5 -30.5t-12 -38.5t-7.5 -53l-43 -390q-2 -20 -3 -33t-1 -26q0 -32 6.5 -50.5t29.5 -43.5h-286q16 13 27 27t18.5 31.5t12.5 40t9 54.5l32 291l-262 -458z" />
    <glyph glyph-name="N" unicode="N" horiz-adv-x="713" 
d="M636 0q-16 -4 -30 -5.5t-32 -1.5q-43 0 -74 8t-56 30.5t-47.5 62t-48.5 101.5l-116 273l-70 -315q-7 -32 -10 -52.5t-3 -34.5q0 -17 5.5 -30t22.5 -36h-204q18 14 30.5 27.5t22 30.5t16.5 39.5t14 55.5l86 389q13 56 13 87q0 18 -6.5 33t-23.5 33h228q4 -14 12 -38
t19 -51l151 -365l67 301q13 59 13 87q0 17 -5.5 29.5t-22.5 36.5h204q-18 -14 -30.5 -27.5t-22 -30.5t-16.5 -39.5t-14 -55.5l-105 -475z" />
    <glyph glyph-name="O" unicode="O" horiz-adv-x="728" 
d="M431 616q-76 0 -128 -123q-11 -26 -20 -57.5t-15.5 -65t-10 -68.5t-3.5 -66q0 -73 25.5 -115t69.5 -42q82 0 134 131q10 25 18 55.5t14 63.5t9 66.5t3 63.5q0 157 -96 157zM454 709q136 0 210 -76q66 -66 66 -204q0 -99 -29 -181t-81.5 -140t-126 -90t-163.5 -32
q-135 0 -206.5 72t-71.5 209q0 47 8 93t22.5 88t35.5 79t48 67q103 115 288 115z" />
    <glyph glyph-name="P" unicode="P" horiz-adv-x="612" 
d="M253 153q-6 -27 -9.5 -50t-3.5 -37q0 -17 5.5 -30t22.5 -36h-288q18 14 31 27.5t22 30.5t16 39.5t14 55.5l86 389q13 58 13 87q0 16 -5.5 28.5t-22.5 37.5h249q46 0 78.5 -1.5t56.5 -5t41.5 -10t32.5 -15.5q28 -17 43.5 -50t15.5 -75q0 -51 -17.5 -93.5t-49.5 -73
t-76.5 -47.5t-98.5 -17q-32 0 -56 4.5t-53 16.5q32 2 51.5 9t35.5 22q27 27 43 72t16 93q0 88 -75 88h-17z" />
    <glyph glyph-name="Q" unicode="Q" horiz-adv-x="728" 
d="M431 616q-76 0 -128 -123q-11 -26 -20 -57.5t-15.5 -65t-10 -68.5t-3.5 -66q0 -73 25.5 -115t69.5 -42q82 0 134 131q10 25 18 55.5t14 63.5t9 66.5t3 63.5q0 157 -96 157zM552 46q53 -86 114 -133t121 -47h11t13 2q-47 -45 -86 -64t-86 -19q-33 0 -64 10.5t-63.5 34.5
t-69 62.5t-79.5 94.5q-12 -1 -18 -1h-15q-71 0 -128 22t-92 64q-28 34 -43 84t-15 113q0 93 30 178.5t84 146.5q50 56 122.5 85.5t161.5 29.5q139 0 214 -76q66 -66 66 -204q0 -130 -45 -226.5t-133 -156.5z" />
    <glyph glyph-name="R" unicode="R" horiz-adv-x="677" 
d="M297 370q7 -2 11.5 -3t12.5 -1q28 0 51.5 12.5t40.5 35t27 53t10 66.5q0 74 -91 74h-9zM-20 0q18 14 31 27.5t22 30.5t16 39.5t14 55.5l86 389q13 56 13 87q0 16 -5.5 28.5t-22.5 37.5h272q67 0 109 -6t68 -19q32 -17 51 -53.5t19 -81.5q0 -44 -16.5 -85.5t-42.5 -66.5
q-23 -21 -50 -30t-72 -10l37 -80l54.5 -114t40 -74.5t31 -46t28.5 -28.5q-23 -3 -37 -4t-24 -2t-18.5 -1h-21.5q-51 0 -84.5 8.5t-55.5 28.5q-10 9 -19 21t-18.5 30t-20.5 44.5l-26 64.5l-51 133l-38 -170q-7 -33 -10 -52.5t-3 -34.5q0 -17 5.5 -30t22.5 -36h-284z" />
    <glyph glyph-name="S" unicode="S" horiz-adv-x="539" 
d="M529 538q-27 22 -48 37t-40.5 24t-38.5 13t-40 4q-38 0 -60 -16.5t-22 -44.5q0 -15 4 -26.5t16.5 -26t35.5 -34.5t62 -51q31 -25 52.5 -46.5t34 -43.5t18 -45.5t5.5 -51.5q0 -53 -21 -97.5t-58.5 -77t-89.5 -51t-113 -18.5q-115 0 -200 40l-19 143q33 -25 60 -42
t51 -27.5t47 -15.5t47 -5q48 0 77.5 23.5t29.5 61.5q0 16 -4 29t-15.5 28t-33 34.5t-56.5 48.5q-33 27 -55.5 50.5t-36 45.5t-19 44.5t-5.5 48.5q0 49 19.5 89t55.5 68.5t87.5 43.5t114.5 15q47 0 85.5 -8t80.5 -25z" />
    <glyph glyph-name="T" unicode="T" horiz-adv-x="573" 
d="M609 549q-23 25 -44 34.5t-52 9.5h-59l-97 -440q-6 -26 -9.5 -49.5t-3.5 -37.5q0 -17 5.5 -30t22.5 -36h-288q18 14 30.5 27.5t22 30.5t16.5 39.5t14 55.5l97 437q-20 3 -31.5 4t-25.5 1q-39 0 -70.5 -9t-66.5 -29l71 148q17 -5 42.5 -7.5t55.5 -2.5h300h53t34 1t25 2.5
l26 3.5z" />
    <glyph glyph-name="U" unicode="U" horiz-adv-x="724" 
d="M415 66q-25 -23 -46.5 -38.5t-43.5 -24.5t-47.5 -13t-57.5 -4q-41 0 -69.5 8.5t-50.5 26.5q-23 19 -35.5 45.5t-12.5 55.5q0 9 0.5 16.5t2 17t4 22l6.5 31.5l74 333q13 59 13 87q0 17 -5.5 29.5t-22.5 36.5h288q-18 -14 -31 -27.5t-22 -30.5t-16 -39.5t-14 -55.5
l-58 -259q-5 -25 -9 -43t-6 -32t-3 -24.5t-1 -19.5q0 -32 20 -50t55 -18q34 0 60.5 15t40.5 42q9 17 15.5 38t14.5 57l65 294q7 29 10 51t3 36q0 17 -5.5 30t-22.5 36h288q-18 -14 -31 -27.5t-22 -30.5t-16 -39.5t-14 -55.5l-86 -389q-13 -56 -13 -87q0 -17 5.5 -30
t22.5 -36h-251z" />
    <glyph glyph-name="V" unicode="V" horiz-adv-x="599" 
d="M527 583q14 24 22 45t8 32q0 17 -22 35h178q-4 -6 -7 -11.5t-7 -12t-9 -15.5l-12 -22l-21 -37l-347 -611l-26 15l-41.5 24.5t-26 16.5t-17 13.5t-13.5 14.5q-6 8 -10 19t-8 27.5t-8 41.5t-8 61l-45 359q-4 25 -8 42t-8.5 30t-11 23.5t-15.5 21.5h227q-2 -10 -2 -16v-17
q0 -49 6 -101l36 -341z" />
    <glyph glyph-name="W" unicode="W" horiz-adv-x="1019" 
d="M939 591q14 24 19 38.5t5 26.5q0 20 -22 39h177q-6 -10 -9.5 -16.5t-7.5 -12.5t-8 -14t-11 -20l-30 -53l-341 -593l-72 38q-24 13 -39.5 25.5t-24 28.5t-12 38.5t-4.5 56.5l-4 217l-203 -404l-71 35q-27 14 -44 26.5t-27.5 30t-16 44t-9.5 68.5l-44 369q-5 32 -9 53
t-9.5 35.5t-12.5 25t-17 22.5h223q-2 -13 -2.5 -20.5t-0.5 -15.5q0 -16 2 -40.5t4 -46.5l42 -355l185 374q-8 41 -15.5 62.5t-18.5 41.5h226q-8 -19 -11.5 -35.5t-3.5 -41.5v-8.5t1 -14.5v-19l9 -357z" />
    <glyph glyph-name="X" unicode="X" horiz-adv-x="674" 
d="M433 475l102 117q26 29 37 46.5t11 28.5q0 13 -19 28h193q-4 -4 -7 -7.5t-6 -7.5l-33 -36l-29 -33l-212 -235l53 -137q21 -54 38.5 -94t33 -68.5t30 -46.5t29.5 -30q-39 -8 -68 -11t-57 -3q-64 0 -103 30.5t-65 101.5l-58 154l-145 -168l-25.5 -29.5t-14.5 -19
t-6.5 -12.5t-1.5 -9q0 -15 18 -34h-197l25 25l16.5 17t15 17t21.5 24l256 284l-63 163q-12 34 -22 58.5t-20.5 43t-22 33.5t-26.5 30h235z" />
    <glyph glyph-name="Y" unicode="Y" horiz-adv-x="608" 
d="M515 607q11 18 18 32.5t7 22.5q0 16 -20 33h187l-38.5 -49.5l-25.5 -33.5l-216 -299l-36 -160q-5 -26 -8.5 -49t-3.5 -38q0 -17 5 -30t22 -36h-281q18 14 31 27.5t22.5 30.5t16.5 40t14 55l35 159q-11 44 -32.5 98.5t-48 107.5t-54.5 99t-52 73q35 11 57 15t48 4
q31 0 55.5 -6t44.5 -19.5t36.5 -35.5t32.5 -54l8.5 -19t11.5 -27l18 -44.5l29 -70.5z" />
    <glyph glyph-name="Z" unicode="Z" horiz-adv-x="619" 
d="M-42 0l14 19.5l23 32.5l14.5 20l12.5 18l365 508q-18 2 -29.5 3t-26.5 1q-115 0 -218 -65l78 158h490l-8 -10l-28 -41l-14 -20l-371 -517q23 -2 39 -3t39 -1q45 0 82 4t70 12.5t63.5 23t62.5 35.5l-97 -178h-561z" />
    <glyph glyph-name="AE" unicode="&#xc6;" horiz-adv-x="853" 
d="M421 288l61 254l-187 -254h126zM824 538q-6 19 -13.5 30.5t-23.5 17.5t-44.5 7.5t-74.5 1.5l-40 -178h66q32 0 49.5 2t34.5 7l-35 -160q-4 16 -8.5 25.5t-12.5 14.5t-22 6.5t-36 1.5h-58l-44 -195q25 -12 50.5 -16.5t66.5 -4.5q29 0 51 2.5t42 9.5t40 19t45 31l-82 -160
h-467q18 14 30.5 27.5t22 30.5t16.5 39.5t14 55.5l9 44h-174l-63 -82q-23 -29 -32 -45t-9 -26q0 -17 23 -44h-218q6 6 10.5 10t8 8t7.5 8l9 9l6 7l5 6l36 46l392 493q19 24 25.5 36.5t6.5 23.5q0 13 -9 24t-29 24h464z" />
    <glyph glyph-name="OE" unicode="&#x152;" horiz-adv-x="939" 
d="M427 619q-73 0 -120 -114q-12 -28 -21 -60.5t-16 -67t-10.5 -70t-3.5 -68.5q0 -163 93 -163q89 0 138 133q10 26 18 58t14 65.5t9.5 66.5t3.5 62q0 75 -27 116.5t-78 41.5zM910 538q-6 19 -13.5 30.5t-23.5 17.5t-44.5 7.5t-74.5 1.5l-39 -178h65q32 0 50 2t35 7
l-36 -160q-4 16 -8.5 25.5t-12.5 14.5t-22 6.5t-36 1.5h-58l-44 -195q13 -6 25.5 -10t26 -6.5t29.5 -3.5t36 -1q29 0 51 2.5t42 9.5t40 19t45 31l-82 -160h-429q-32 -8 -56 -11t-53 -3q-133 0 -202 71.5t-69 210.5q0 93 29.5 179.5t82.5 146.5q48 54 118.5 84.5t151.5 30.5
q26 0 51.5 -3t67.5 -11h392z" />
    <glyph glyph-name="Oslash" unicode="&#xd8;" horiz-adv-x="747" 
d="M523 582q-28 40 -79 40q-44 0 -78 -30t-64 -94q-12 -26 -22 -58t-16.5 -66.5t-10.5 -69.5t-4 -67v-12t1 -12zM279 117q32 -44 81 -44q89 0 144 133q10 25 19 56.5t15.5 65t10 68t3.5 64.5v25zM688 618q27 -35 39.5 -80.5t12.5 -110.5q0 -99 -29 -180t-81.5 -139
t-125.5 -90t-162 -32q-97 0 -168 41l-69 -79h-106l115 132q-52 68 -52 190q0 46 8 91t22.5 87t35.5 79t48 67q50 56 122.5 85.5t160.5 29.5q51 0 91 -9.5t77 -29.5l67 77h106z" />
    <glyph glyph-name="Ccedilla" unicode="&#xc7;" horiz-adv-x="631" 
d="M359 -46h10q35 0 55.5 -18.5t20.5 -50.5q0 -48 -40.5 -75.5t-109.5 -27.5q-17 0 -31 1t-38 6l-9 70q20 -11 38.5 -16t40.5 -5q26 0 41.5 10.5t15.5 28.5q0 29 -47 29q-10 0 -17.5 -1t-19.5 -3l44 86q-127 14 -196.5 90.5t-69.5 202.5q0 97 37 184t103 145q112 99 291 99
q24 0 45 -1.5t41 -4.5t40.5 -8.5t43.5 -13.5l-17 -147q-57 75 -147 75q-50 0 -93 -24.5t-74.5 -67t-49.5 -101t-18 -126.5q0 -97 44 -150.5t123 -53.5q22 0 43.5 3.5t45 12t50.5 22.5t60 34l-74 -134q-37 -17 -76.5 -26.5t-87.5 -11.5z" />
    <glyph glyph-name="a" unicode="a" horiz-adv-x="597" 
d="M252 -5q-20 -5 -33 -6.5t-28 -1.5q-79 0 -124.5 47t-45.5 129q0 35 8 70t22 68t34.5 62.5t45.5 52.5q42 39 97 57.5t127 18.5h21.5t18.5 -1t26 -3t44 -6q7 -1 15 -1.5t18 -0.5q26 0 46 4.5t45 15.5l-75 -339q-3 -15 -4.5 -24.5t-1.5 -17.5q0 -31 33 -31q13 0 22.5 2
t23.5 7l-71 -91q-26 -11 -44.5 -15.5t-41.5 -4.5q-51 0 -78 23.5t-27 68.5q0 9 0.5 15.5t1.5 15t3.5 20.5t7.5 32l50 225q-17 10 -27.5 13.5t-22.5 3.5q-20 0 -40 -12.5t-34 -33.5q-26 -39 -40.5 -88.5t-14.5 -97.5q0 -41 20 -64.5t55 -23.5h9t10 2z" />
    <glyph glyph-name="b" unicode="b" horiz-adv-x="600" 
d="M357 479q20 8 34 10.5t36 2.5q74 0 112.5 -45.5t38.5 -133.5q0 -78 -34.5 -145t-96.5 -112q-50 -35 -112.5 -52t-147.5 -17q-29 0 -51 1.5t-42.5 5.5t-42.5 11t-50 18q7 7 12 13.5t8.5 14t7 18t6.5 26.5q2 7 3 14t3 15l98 440q4 22 6.5 34.5t3.5 20t1.5 12t0.5 10.5
q0 14 -6 26t-20 27q69 0 108 0.5t60.5 2.5t32.5 6t25 11l-138 -622q14 -9 25 -12.5t25 -3.5q27 0 50 16.5t40 45t26.5 67.5t9.5 84q0 48 -15.5 69.5t-48.5 21.5q-9 0 -16 -1.5t-19 -6.5z" />
    <glyph glyph-name="c" unicode="c" horiz-adv-x="473" 
d="M396 16q-76 -29 -163 -29q-211 0 -211 190q0 67 24.5 124.5t68 100t102 66.5t127.5 24q67 0 106 -23t39 -63q0 -33 -26 -55t-65 -22q-37 0 -60 17q21 17 21 35q0 22 -29 22q-23 0 -44.5 -18.5t-38 -49.5t-26.5 -71.5t-10 -83.5q0 -49 23.5 -76.5t65.5 -27.5t79.5 15
t80.5 49z" />
    <glyph glyph-name="d" unicode="d" horiz-adv-x="587" 
d="M249 -7q-20 -4 -32.5 -5t-28.5 -1q-81 0 -125 46.5t-44 132.5q0 71 29 137.5t81 114.5q42 38 90.5 56t112.5 18q21 0 35.5 -1t38.5 -6l18 79q4 22 6.5 34.5t3.5 20t1.5 12t0.5 10.5q0 14 -6 26t-20 27q53 1 89.5 1t57.5 1q26 2 40.5 5t32.5 13l-122 -553q-5 -21 -6 -27.5
t-1 -14.5q0 -31 30 -31q11 0 22 2t31 7l-71 -91q-22 -11 -41.5 -15.5t-45.5 -4.5q-51 0 -77.5 24t-26.5 69v15t1.5 13.5l4 19.5t7.5 34l49 223q-20 19 -47 19q-20 0 -40 -12.5t-35 -34.5q-25 -38 -40 -89t-15 -99q0 -41 19 -63t53 -22h9.5t12.5 2z" />
    <glyph glyph-name="e" unicode="e" horiz-adv-x="509" 
d="M218 258q26 4 44 11.5t38 23.5q23 17 36 37.5t13 37.5q0 12 -10 20t-24 8q-35 0 -61 -37.5t-36 -100.5zM432 36q-56 -26 -104.5 -37.5t-102.5 -11.5q-100 0 -153 46t-53 132q0 68 26 127.5t71 104t106 70t131 25.5q77 0 121.5 -28.5t44.5 -78.5q0 -46 -38 -88.5
t-103 -68.5q-62 -25 -168 -35q1 -26 3.5 -40t7.5 -28q8 -22 28.5 -35t46.5 -13q48 0 88 21t82 68z" />
    <glyph glyph-name="f" unicode="f" horiz-adv-x="368" 
d="M438 479l-25 -115q-8 15 -20 20.5t-35 5.5h-66l-66 -300q-37 -166 -101 -245q-29 -35 -74.5 -55t-95.5 -20q-30 0 -56 5.5t-52 18.5l55 64q14 -8 22 -11t19 -3q39 0 56 46l7 19.5t7 22t9.5 37.5l15.5 67l78 354h-68l89 92q6 33 13.5 57.5t17 44.5t21.5 35.5t28 30.5
q65 59 181 59q64 0 118 -18l-76 -106q-20 36 -54 36q-23 0 -36.5 -17t-22.5 -59l-15 -66h126z" />
    <glyph glyph-name="g" unicode="g" horiz-adv-x="562" 
d="M482 56q-11 -47 -19 -77.5t-16 -52.5t-18 -38t-24 -33q-31 -38 -82 -58.5t-117 -20.5q-46 0 -84.5 9t-66.5 25t-43.5 38t-15.5 49q0 35 24 57.5t62 22.5q41 0 74 -27q-26 -12 -26 -37q0 -18 15.5 -29.5t39.5 -11.5q26 0 47 14.5t32 39.5q9 21 19.5 58.5t21.5 85.5l70 314
q-11 7 -20.5 9.5t-20.5 2.5q-24 0 -46 -16.5t-38.5 -44t-26.5 -64t-10 -75.5q0 -45 18 -68.5t53 -23.5h4.5t7.5 1l-53 -91q-16 -3 -24.5 -4t-22.5 -1q-37 0 -59 5t-42 19q-71 45 -71 140q0 60 21.5 117.5t60.5 102.5q45 51 102.5 75t137.5 24q25 0 48.5 -2t58.5 -7
l30.5 -3.5t22.5 -1.5q20 0 37.5 5.5t36.5 16.5z" />
    <glyph glyph-name="h" unicode="h" horiz-adv-x="600" 
d="M282 423q40 42 71 58t72 16q29 0 53.5 -9.5t42.5 -26t28 -39t10 -49.5q0 -16 -2.5 -33t-8.5 -43l-30 -136q-3 -16 -4.5 -25t-1.5 -17q0 -31 30 -31q9 0 19 2t30 7l-71 -91q-25 -11 -44 -15.5t-42 -4.5q-51 0 -78 23.5t-27 68.5q0 9 0.5 15t1.5 14.5t3.5 20.5t7.5 33
l30 133q4 20 5 26.5t1 12.5q0 41 -43 41q-20 0 -37.5 -9t-25.5 -24q-8 -14 -14 -33.5t-14 -57.5l-22 -97q-7 -32 -11 -58.5t-4 -40.5q0 -13 3.5 -25t12.5 -29h-246q13 13 23 25.5t17.5 29.5t14 40.5t14.5 57.5l91 411q5 24 8.5 45.5t3.5 32.5q0 14 -6 25.5t-20 26.5
q68 0 106.5 0.5t59.5 2.5t32.5 6t25.5 11z" />
    <glyph glyph-name="i" unicode="i" horiz-adv-x="316" 
d="M244 724q42 0 66.5 -24.5t24.5 -66.5q0 -48 -29.5 -79t-75.5 -31q-44 0 -70 25.5t-26 69.5q0 49 29.5 77.5t80.5 28.5zM229 161q-5 -19 -6 -27.5t-1 -15.5q0 -30 31 -30q10 0 19 2t23 7l-71 -91q-25 -11 -44.5 -15.5t-45.5 -4.5q-94 0 -94 94q0 9 0.5 15t1.5 14.5t3.5 20
t7.5 31.5l42 190q12 55 12 77q0 14 -6 26t-20 27q31 0 50.5 0.5t34.5 0.5t29.5 0.5t35.5 0.5q26 2 41 5t32 12z" />
    <glyph glyph-name="j" unicode="j" horiz-adv-x="322" 
d="M261 724q42 0 66.5 -24.5t24.5 -66.5q0 -48 -29 -79t-76 -31q-44 0 -70 25.5t-26 69.5q0 49 29.5 77.5t80.5 28.5zM224 73q-14 -61 -24 -99.5t-19 -63t-20 -39.5t-26 -29q-55 -52 -174 -52q-17 0 -30.5 1t-34.5 4q35 21 57 40t38 48t28 72.5t27 113.5l63 282
q4 22 6.5 34.5t3.5 20t1.5 12t0.5 10.5q0 14 -6 26.5t-20 26.5q31 0 51 0.5t35 0.5t29 0.5t35 0.5q27 2 41.5 5t31.5 13z" />
    <glyph glyph-name="k" unicode="k" horiz-adv-x="571" 
d="M244 260q16 -2 25 -3t18 -1q45 0 71.5 19t26.5 50q0 22 -12.5 35t-34.5 13q-35 0 -56.5 -26t-37.5 -87zM280 428q42 34 81.5 49t83.5 15q57 0 89.5 -31t32.5 -85q0 -57 -37.5 -95.5t-104.5 -50.5l46 -90l34.5 -66t24 -39.5t20 -22t21.5 -12.5q-38 -7 -67.5 -10t-60.5 -3
q-68 0 -99 28q-7 6 -11.5 11t-10 14t-13.5 25l-22 45l-54 107l-15 -67q-15 -68 -15 -97q0 -12 3.5 -24t13.5 -29h-243q13 12 23 25t17.5 29.5t14 39.5t13.5 56l92 414q6 26 9 46t3 31q0 14 -6 26t-20 27q67 0 104 0.5t58 2.5t32.5 6t25.5 11z" />
    <glyph glyph-name="l" unicode="l" horiz-adv-x="302" 
d="M224 161q-5 -19 -6 -27.5t-1 -15.5q0 -30 31 -30q10 0 19 2t23 7l-71 -91q-24 -11 -44 -15.5t-43 -4.5q-46 0 -71.5 24.5t-25.5 68.5q0 9 0.5 15.5t1.5 14.5t3.5 20t7.5 32l89 403q4 22 6.5 34.5t3.5 20t1.5 12t0.5 10.5q0 14 -6 26.5t-20 26.5q68 0 106.5 0.5t59.5 2.5
t32 6t25 11z" />
    <glyph glyph-name="m" unicode="m" horiz-adv-x="895" 
d="M289 423q40 40 75.5 57t77.5 17q48 0 77.5 -20t47.5 -64q40 46 74.5 65t78.5 19q29 0 53.5 -9t42 -25.5t27.5 -39t10 -49.5q0 -14 -2 -31.5t-4 -28.5l-34 -153q-6 -27 -6 -42q0 -31 30 -31q10 0 19 2t23 7l-71 -91q-25 -11 -43.5 -15.5t-41.5 -4.5q-47 0 -73 24t-26 69
q0 9 0.5 15.5t1.5 15t3.5 20.5l6.5 31l30 135q4 14 5.5 25.5t1.5 18.5q0 16 -11 25t-30 9q-35 0 -54 -24t-33 -86l-24 -111q-8 -35 -12 -60t-4 -39q0 -13 3.5 -25t13.5 -29h-247q13 13 23 25.5t17.5 29.5t14 40.5t14.5 57.5l34 150q2 8 3 18.5t1 16.5q0 17 -11 26.5t-30 9.5
q-35 0 -55 -26.5t-34 -92.5l-23 -102q-7 -32 -11 -58.5t-4 -40.5q0 -13 3.5 -25t12.5 -29h-246q13 13 23 25.5t17.5 29.5t14 40.5t14.5 57.5l44 198q12 57 12 77q0 14 -6 26t-20 27h50.5h34.5t29.5 0.5t35.5 0.5q26 2 41 5.5t32 12.5z" />
    <glyph glyph-name="n" unicode="n" horiz-adv-x="607" 
d="M289 423q40 42 71 58t72 16q29 0 53.5 -9.5t42.5 -26t28 -39t10 -49.5q0 -16 -2.5 -33t-8.5 -43l-30 -136q-3 -16 -4.5 -25t-1.5 -17q0 -31 30 -31q11 0 19.5 2t22.5 7l-71 -91q-24 -11 -43 -15.5t-41 -4.5q-48 0 -74 24.5t-26 67.5v15t1.5 14t4 20t7.5 34l28 126
q5 20 6.5 32t1.5 20q0 18 -11.5 28.5t-31.5 10.5q-33 0 -53.5 -26.5t-34.5 -86.5l-25 -112q-7 -32 -11 -58.5t-4 -40.5q0 -13 3.5 -25t12.5 -29h-246q13 13 23 25.5t17.5 29.5t14 40.5t14.5 57.5l44 198q12 57 12 77q0 14 -6 26t-20 27h50.5h34.5t29.5 0.5t35.5 0.5
q26 2 41 5.5t32 12.5z" />
    <glyph glyph-name="o" unicode="o" horiz-adv-x="587" 
d="M325 403q-23 0 -43.5 -18t-35.5 -49.5t-24 -73t-9 -87.5q0 -99 60 -99q52 0 81 77q13 33 21 76.5t8 78.5q0 95 -58 95zM333 492q114 0 174 -53.5t60 -153.5q0 -76 -33.5 -143t-91.5 -107q-36 -25 -77.5 -36.5t-95.5 -11.5q-119 0 -179.5 51.5t-60.5 153.5
q0 69 25.5 130.5t70.5 101.5q77 68 208 68z" />
    <glyph glyph-name="p" unicode="p" horiz-adv-x="601" 
d="M236 118q14 -8 24 -11.5t24 -3.5q47 0 72 46q16 30 24.5 70t8.5 82q0 36 -14.5 56t-40.5 20q-17 0 -29 -7t-22.5 -24.5t-19.5 -47.5t-19 -76l-63 -283q-7 -32 -11 -58.5t-4 -40.5q0 -13 3.5 -25t12.5 -29h-246q13 12 23 25t17.5 30t14 40.5t14.5 57.5l91 412
q5 21 7.5 33.5l4 20t1.5 12v10.5q0 27 -27 54h50.5h34.5t30 0.5t36 0.5q26 2 40.5 5.5t32.5 12.5l-17 -77q28 36 61 52.5t78 16.5q73 0 111.5 -45t38.5 -131q0 -60 -18 -116t-51 -101q-67 -92 -181 -92q-26 0 -42 3.5t-36 12.5z" />
    <glyph glyph-name="q" unicode="q" horiz-adv-x="576" 
d="M245 15q-20 -3 -32.5 -4t-26.5 -1q-73 0 -114.5 45t-41.5 126q0 76 32.5 142.5t90.5 110.5q79 58 190 58h20.5t20.5 -1t32.5 -3t57.5 -6q8 -1 14.5 -1h13.5q22 0 38.5 4t42.5 15l-124 -561q-6 -27 -9 -43t-4.5 -26t-2 -16t-0.5 -14q0 -13 3.5 -25t13.5 -29h-246
q13 13 23 25.5t17.5 29.5t14 40.5t14.5 57.5l98 445q-13 11 -22 15t-21 4q-24 0 -46 -16.5t-38.5 -45t-26 -65.5t-9.5 -78q0 -45 17.5 -69t49.5 -24h5.5t8.5 1z" />
    <glyph glyph-name="r" unicode="r" horiz-adv-x="405" 
d="M423 343q-15 11 -28 16t-30 5q-26 0 -48.5 -13t-35.5 -35q-11 -19 -21.5 -47.5t-16.5 -55.5l-14 -60q-7 -32 -11 -58.5t-4 -40.5q0 -13 3.5 -25t12.5 -29h-246q13 13 23 25.5t17.5 29.5t14 40.5t14.5 57.5l44 198q12 57 12 77q0 14 -6 26t-20 27q10 -1 20 -1.5t23.5 -0.5
h32.5h46q22 0 36 0.5t24.5 2.5t19.5 5t21 9l-23 -99q32 50 67 72.5t82 22.5h10.5t12.5 -1z" />
    <glyph glyph-name="s" unicode="s" horiz-adv-x="469" 
d="M433 357q-69 53 -127 53q-25 0 -40.5 -11t-15.5 -29q0 -30 47 -56l42.5 -23.5t27 -17t17.5 -14.5t15 -16q27 -30 27 -78q0 -39 -17 -72t-47 -56.5t-72.5 -36.5t-93.5 -13q-96 0 -174 26l1 119q34 -33 70.5 -48t82.5 -15q34 0 54.5 12t20.5 32q0 27 -49 52l-42 22
t-28.5 17t-20 16t-16.5 19q-27 34 -27 79q0 40 16 72.5t46 55t72 34.5t95 12q43 0 79 -5.5t71 -18.5z" />
    <glyph glyph-name="t" unicode="t" horiz-adv-x="351" 
d="M316 633l-34 -154h119l-28 -126q-14 21 -28 29t-37 8h-34l-42 -191q-7 -30 -8.5 -40.5t-1.5 -21.5q0 -23 16.5 -37t43.5 -14q7 0 14.5 0.5t24.5 2.5l-46 -85q-48 -16 -99 -16q-62 0 -98 33t-36 90q0 9 0.5 16t2 15.5l3.5 20.5t6 30l44 197h-53l17 78q142 13 181 165h73z
" />
    <glyph glyph-name="u" unicode="u" horiz-adv-x="600" 
d="M517 7q-25 -11 -45.5 -15.5t-43.5 -4.5q-90 0 -103 78q-65 -78 -155 -78q-27 0 -50 9t-40 25.5t-26.5 39t-9.5 48.5q0 12 1.5 23t6.5 34l41 185q4 21 7 33.5t4 20t1.5 12.5t0.5 11q0 14 -6 26t-21 27q31 0 51 0.5t35 0.5t29.5 0.5t35.5 0.5q26 2 40.5 5t32.5 12l-67 -301
q-6 -27 -8 -39t-2 -21q0 -33 36 -33q42 0 62 31q8 12 13 26.5t12 46.5l31 141q5 26 8.5 46t3.5 31q0 14 -6 26t-20 27q31 0 50.5 0.5t34.5 0.5t30 0.5t36 0.5q26 2 40.5 5t32.5 12l-73 -327q-4 -16 -6 -32t-2 -25q0 -27 29 -27q11 0 21 2t28 8z" />
    <glyph glyph-name="v" unicode="v" horiz-adv-x="504" 
d="M228 163q-5 -23 -5 -33q0 -29 28 -29q27 0 55 20t50.5 51.5t36.5 70.5t14 77q0 34 -15.5 54.5t-41.5 20.5q-13 0 -27 -11q-2 5 -2 14q0 41 27 67.5t69 26.5q47 0 74 -30.5t27 -83.5q0 -71 -32 -146t-88 -134q-51 -54 -111.5 -82.5t-126.5 -28.5q-119 0 -119 98
q0 17 2 33.5t7 39.5l43 193l6.5 33.5t3.5 20t1.5 12.5t0.5 11q0 14 -6 26t-20 27h51h35t29.5 0.5t35.5 0.5q26 2 40.5 5.5t32.5 12.5z" />
    <glyph glyph-name="w" unicode="w" horiz-adv-x="789" 
d="M511 163q-2 -9 -3 -18t-1 -15q0 -29 28 -29q27 0 54.5 20t50 51.5t36.5 70.5t14 77q0 34 -15 54.5t-41 20.5q-13 0 -27 -11q-2 5 -2 8.5v6.5q0 40 27 66.5t68 26.5q47 0 74 -30.5t27 -83.5q0 -74 -30 -144t-79.5 -125t-113 -88.5t-130.5 -33.5q-53 0 -81.5 20t-39.5 65
q-36 -45 -72 -65t-83 -20q-57 0 -93 34t-36 87q0 12 1.5 21.5t6.5 33.5l42 188l6.5 33.5t3.5 20t1.5 12t0.5 10.5q0 15 -6 27.5t-20 26.5h50.5h34.5t29.5 0.5t35.5 0.5q26 2 41 5.5t32 12.5l-67 -301q-5 -23 -7 -37t-2 -24q0 -32 36 -32q33 0 51.5 21t29.5 72l34 152
q5 26 8.5 46t3.5 31q0 14 -6 26.5t-20 26.5h50.5h34.5t29.5 0.5t35.5 0.5q26 2 41 5.5t32 12.5z" />
    <glyph glyph-name="x" unicode="x" horiz-adv-x="558" 
d="M432 150q15 -35 27 -58.5t23.5 -40t23 -28.5t26.5 -23q-34 -8 -57 -10.5t-52 -2.5q-35 0 -60.5 5t-44.5 18t-33.5 35t-29.5 55l-26 59l-46 -54l-29 -35q-35 -43 -58.5 -60t-48.5 -17q-32 0 -63 17l-2 108q13 -8 25 -12t27 -4t25.5 3t24 14t33 32.5l51.5 58.5l21 26
l-64 138q-10 24 -17.5 40t-14.5 27.5t-14 20t-17 17.5h234q0 -14 1 -23.5t3 -18t6 -18l10 -23.5l22 -51l17 22q47 65 82.5 92.5t72.5 27.5q25 0 50 -18v-107q-15 8 -27 12t-26 4q-12 0 -21.5 -2.5t-19.5 -10.5t-23.5 -23.5t-33.5 -41.5l-32 -35z" />
    <glyph glyph-name="y" unicode="y" horiz-adv-x="574" 
d="M483 56q-9 -39 -17 -68t-17.5 -52t-20.5 -41.5t-25 -35.5q-33 -41 -84.5 -62t-115.5 -21q-44 0 -82 9t-65.5 25t-43 38.5t-15.5 48.5q0 35 24 57.5t62 22.5q41 0 74 -27q-26 -12 -26 -38q0 -19 17 -30.5t45 -11.5q32 0 53 17t36 55q5 13 11 37l17 70l7 35
q-33 -36 -70.5 -52.5t-85.5 -16.5q-58 0 -90 26t-32 74q0 17 2 33.5t9 45.5l35 157l6.5 33.5t3.5 20t1.5 12.5t0.5 11q0 14 -6 26.5t-20 26.5q31 0 50.5 0.5t34 0.5t28 0.5t34.5 0.5q26 2 40.5 5t32.5 12l-61 -273q-10 -43 -10 -61q0 -32 37 -32q19 0 33 4.5t24 16.5
t17.5 32t14.5 51l25 113q6 27 9 42l4.5 22.5t2 11t0.5 8.5q0 13 -6.5 23.5t-23.5 22.5q34 0 54.5 0.5t35.5 0.5t28.5 0.5t33.5 0.5q28 1 42 4.5t30 12.5z" />
    <glyph glyph-name="z" unicode="z" horiz-adv-x="504" 
d="M549 479l-323 -322h15q8 0 18 -0.5t23 -1.5q20 -2 34 -3t22 -1q69 0 145 32l-109 -188q-26 -2 -40.5 -3t-31.5 -1q-11 0 -20 0.5t-21.5 1t-31.5 2t-51 4.5q-30 3 -51 4t-45 1q-45 0 -74 -1.5t-60 -5.5l328 327q-20 2 -39 3t-35 1q-48 0 -82 -8.5t-67 -28.5l73 188h423z
" />
    <glyph glyph-name="ae" unicode="&#xe6;" horiz-adv-x="811" 
d="M543 262q24 6 44 17t34.5 25t23 31t8.5 35q0 14 -10 23t-25 9t-25.5 -6t-19 -21.5t-15.5 -42.5t-15 -70zM735 40q-93 -53 -218 -53q-94 0 -137.5 30t-43.5 95q0 10 0.5 17.5t2 17t4.5 24l8 38.5l39 176q-23 15 -49 15q-27 0 -51 -17.5t-42 -46.5t-28.5 -68t-10.5 -82
q0 -49 19.5 -75t57.5 -26q5 0 9 0.5t12 2.5l-54 -92q-20 -5 -34.5 -7t-32.5 -2q-77 0 -121 48t-44 132q0 70 26.5 133t75.5 110q44 42 94.5 62t113.5 20q30 0 57.5 -3.5t70.5 -11.5q31 -6 47 -6t43 6l39.5 8t26.5 4.5t21 2t22 0.5q75 0 119 -28.5t44 -76.5t-40.5 -90
t-113.5 -71q-31 -12 -62 -18.5t-77 -10.5l-3 -20q-3 -14 -4.5 -26.5t-1.5 -20.5q0 -23 22 -37.5t56 -14.5q46 0 85 20t85 68z" />
    <glyph glyph-name="oe" unicode="&#x153;" horiz-adv-x="861" 
d="M569 258q27 5 45 12.5t38 22.5q23 17 36 37.5t13 37.5q0 12 -10 20t-24 8q-35 0 -61.5 -37.5t-36.5 -100.5zM326 403q-23 0 -43.5 -18t-36 -49t-24.5 -72.5t-9 -88.5q0 -99 60 -99q55 0 86 77q7 16 12.5 36t9.5 41t6.5 41.5t2.5 38.5q0 93 -64 93zM783 36
q-54 -26 -102.5 -37.5t-100.5 -11.5q-48 0 -84 9.5t-65 29.5q-38 -21 -75 -30t-88 -9q-118 0 -178.5 51.5t-60.5 154.5q0 69 25.5 130t70.5 101q77 68 205 68q60 0 103.5 -13.5t79.5 -43.5q47 30 92 43.5t99 13.5q77 0 121.5 -29t44.5 -78q0 -45 -38.5 -88t-102.5 -69
q-61 -23 -168 -35q2 -26 4 -40t7 -28q8 -22 28.5 -35t46.5 -13q48 0 88 21t82 68z" />
    <glyph glyph-name="oslash" unicode="&#xf8;" horiz-adv-x="587" 
d="M378 391q-20 19 -49 19q-32 0 -58.5 -22.5t-45.5 -66.5q-6 -15 -11.5 -33.5t-9.5 -38t-6.5 -39t-2.5 -34.5v-10t1 -13zM219 89q19 -20 51 -20q61 0 96 80q15 35 25 81.5t10 84.5v11zM509 533h87l-85 -98q29 -30 42.5 -66.5t13.5 -85.5q0 -75 -33.5 -141.5t-90.5 -106.5
q-72 -48 -173 -48q-75 0 -130 21l-53 -61h-87l84 97q-29 27 -42 63t-13 86q0 69 25.5 130t70.5 101q79 68 204 68q73 0 126 -21z" />
    <glyph glyph-name="germandbls" unicode="&#xdf;" horiz-adv-x="635" 
d="M238 100q27 -13 49.5 -18.5t48.5 -5.5q48 0 75 24.5t27 67.5q0 48 -32 94q-3 4 -5.5 7l-9.5 11t-21.5 23l-41.5 43q-17 18 -17 37q0 11 1.5 18t9.5 17t25 25.5l49 44.5q21 20 30.5 37.5t9.5 39.5q0 27 -14 43.5t-38 16.5q-14 0 -27.5 -7t-21.5 -18l-8.5 -14t-6.5 -17.5
t-7.5 -32l-12.5 -57.5l-71 -321q-14 -60 -26.5 -106.5t-25 -82t-26 -62t-29.5 -47.5q-68 -89 -189 -89q-29 0 -51 5t-51 17l57 66q9 -8 16 -11t18 -3q20 0 37.5 11.5t25.5 29.5l6.5 15t6 19t9 35.5l15.5 64.5l82 370h-71l91 93q6 28 12.5 50t16 40t21.5 33t28 29
q38 34 89.5 52t111.5 18q94 0 145 -35.5t51 -99.5q0 -58 -49 -98q-9 -8 -15.5 -12.5t-16 -9.5t-25.5 -12l-44 -20q-17 -8 -17 -17q0 -3 1 -5.5t5.5 -5.5t13 -7.5t23.5 -11.5q152 -71 152 -197q0 -42 -16.5 -76.5t-46.5 -59t-72 -38t-93 -13.5q-35 0 -65 5.5t-62 17.5z" />
    <glyph glyph-name="dotlessi" unicode="&#x131;" horiz-adv-x="316" 
d="M229 161q-5 -19 -6 -27.5t-1 -15.5q0 -30 31 -30q10 0 19 2t23 7l-71 -91q-25 -11 -44.5 -15.5t-45.5 -4.5q-94 0 -94 94q0 9 0.5 15t1.5 14.5t3.5 20t7.5 31.5l42 190q12 55 12 77q0 14 -6 26t-20 27q31 0 50.5 0.5t34.5 0.5t29.5 0.5t35.5 0.5q26 2 41 5t32 12z" />
    <glyph glyph-name="ccedilla" unicode="&#xe7;" horiz-adv-x="473" 
d="M220 -51h8q29 0 46.5 -16t17.5 -42q0 -40 -34 -63.5t-93 -23.5q-14 0 -24.5 1t-32.5 5l-7 59q31 -17 66 -17q22 0 35 9t13 23q0 25 -40 25q-14 0 -31 -4l43 84q-85 12 -125 57.5t-40 130.5q0 67 24.5 124.5t68 100t102 66.5t127.5 24q67 0 106 -23t39 -63q0 -33 -26 -55
t-65 -22q-37 0 -60 17q21 17 21 35q0 10 -8 16t-21 6q-23 0 -44.5 -18.5t-38 -49.5t-26.5 -71.5t-10 -83.5q0 -49 23.5 -76.5t65.5 -27.5t79.5 15t80.5 49l-64 -124q-64 -27 -155 -29z" />
    <glyph glyph-name="one" unicode="1" horiz-adv-x="659" 
d="M207 574q59 11 105.5 25t87 33.5t77.5 47t77 65.5l-131 -592q-7 -28 -10 -50.5t-3 -36.5q0 -17 5.5 -29.5t22.5 -36.5h-288q18 14 31 27.5t22 30.5t16 39.5t14 55.5l85 383z" />
    <glyph glyph-name="two" unicode="2" 
d="M513 0h-531q14 14 24.5 25.5l23 24.5l29.5 30.5l43.5 45.5l65 69.5l94.5 100.5q51 54 83 91t50 63t25 45t7 37q0 30 -26 48.5t-69 18.5q-48 0 -89.5 -13.5t-90.5 -45.5l60 131q42 20 82.5 29t95.5 9q107 0 167 -45t60 -126q0 -27 -6.5 -53.5t-20.5 -54.5t-36.5 -59
t-54.5 -67q-8 -10 -29.5 -31.5l-55.5 -56.5l-79 -80.5l-40 -40.5q20 -2 32.5 -2h29.5q36 0 65 1.5t54.5 5.5t50.5 10.5t54 16.5z" />
    <glyph glyph-name="three" unicode="3" 
d="M192 433q23 -5 38 -6.5t35 -1.5q77 0 120 27.5t43 77.5q0 39 -30.5 62t-81.5 23q-74 0 -150 -51l62 129q58 16 146 16q122 0 186 -43t64 -125q0 -42 -19 -76.5t-53 -54.5q-13 -8 -25 -13.5t-26.5 -9t-31.5 -6t-40 -4.5q34 -8 53 -15.5t36 -20.5q27 -21 41.5 -54t14.5 -73
q0 -53 -23.5 -95t-67 -71.5t-105 -45.5t-138.5 -16q-51 0 -93 6.5t-84 21.5l-22 120q40 -29 79 -41.5t87 -12.5q39 0 70.5 10t54 28.5t35 44t12.5 57.5q0 57 -40 86.5t-117 29.5q-15 0 -25.5 -1t-27.5 -3z" />
    <glyph glyph-name="four" unicode="4" 
d="M349 250l71 322l-246 -322h175zM-21 157l436 538h222q-4 -5 -7 -10.5t-6 -14.5t-6.5 -22l-8.5 -33l-81 -365h34q31 0 54.5 7.5t57.5 27.5l-63 -128h-104l-5 -24l-8 -36l-4.5 -20t-1.5 -11v-9q0 -15 7 -27.5t26 -29.5h-277q19 12 31 21.5t20 23.5t14 34.5t14 53.5l5 24
h-349z" />
    <glyph glyph-name="five" unicode="5" 
d="M641 695l-41 -135q-32 17 -67.5 24.5t-84.5 7.5q-21 0 -46.5 -1.5t-56.5 -5.5l-37 -167q22 5 35.5 6.5t33.5 1.5q104 0 163 -48t59 -133q0 -49 -19.5 -97t-52.5 -80q-39 -39 -102 -60.5t-141 -21.5q-54 0 -99.5 9t-95.5 30l-30 134q31 -21 56.5 -34.5t48 -22t44 -12
t45.5 -3.5q33 0 60.5 9.5t47.5 27t31 41t11 51.5q0 58 -43 90.5t-120 32.5q-26 0 -50 -3.5t-58 -11.5l79 371h430z" />
    <glyph glyph-name="six" unicode="6" 
d="M597 629q-58 0 -105.5 -16.5t-91.5 -51.5q-35 -28 -63.5 -67.5t-48.5 -85.5t-31 -97.5t-11 -103.5q0 -60 21 -91.5t60 -31.5q23 0 42.5 14t34 38.5t22.5 58t8 72.5q0 45 -22 70.5t-61 25.5q-12 0 -22.5 -2.5t-27.5 -9.5l49 80q22 8 41 11t45 3q90 0 141.5 -51.5
t51.5 -140.5q0 -58 -22.5 -106.5t-63.5 -83t-98 -54t-125 -19.5q-63 0 -112.5 16.5t-84.5 48t-53.5 76.5t-18.5 102q0 52 14.5 103t41.5 98.5t65.5 89.5t87.5 75q154 106 376 110z" />
    <glyph glyph-name="seven" unicode="7" 
d="M724 695l-389 -603q-21 -34 -21 -50q0 -8 3.5 -16.5t14.5 -25.5h-272l389 590q-26 2 -42.5 3t-29 2t-22.5 1h-23q-33 0 -59 -2t-47 -6.5t-39 -12.5t-36 -19l71 139h502z" />
    <glyph glyph-name="eight" unicode="8" 
d="M255 315q-43 -21 -62 -48t-19 -68q0 -54 35.5 -86.5t95.5 -32.5q48 0 77 21.5t29 56.5q0 13 -3.5 25t-12.5 23.5t-23.5 24t-36.5 28.5l-33 24.5l-19.5 14t-13 9t-14.5 8.5zM446 420q64 38 64 101q0 42 -24.5 68t-64.5 26q-36 0 -58.5 -20.5t-22.5 -53.5q0 -35 24.5 -63.5
t81.5 -57.5zM512 377q53 -35 77 -75.5t24 -94.5q0 -106 -81 -163.5t-231 -57.5q-131 0 -201.5 48.5t-70.5 138.5q0 68 39.5 114.5t127.5 79.5q-32 32 -45 62.5t-13 72.5q0 98 74 152.5t208 54.5q112 0 173.5 -43.5t61.5 -121.5q0 -35 -13 -66.5t-36 -54.5q-17 -17 -38 -26.5
t-56 -19.5z" />
    <glyph glyph-name="nine" unicode="9" 
d="M124 70q57 0 104.5 16.5t91.5 51.5q35 28 63.5 67t48.5 85.5t31 97.5t11 104q0 60 -21 91.5t-60 31.5q-23 0 -42.5 -14t-33.5 -39t-22.5 -58t-8.5 -72q0 -45 22 -70.5t62 -25.5q13 0 23 2.5t27 9.5l-49 -81q-21 -7 -41 -10t-47 -3q-73 0 -125 40q-35 27 -51 63t-16 90
q0 58 23 106t64 82.5t97.5 54t124.5 19.5q63 0 112.5 -16.5t84.5 -48t53.5 -76.5t18.5 -102q0 -52 -14.5 -103t-41.5 -98.5t-65.5 -89.5t-87.5 -75q-152 -105 -376 -110z" />
    <glyph glyph-name="zero" unicode="0" 
d="M408 615q-59 0 -102 -99q-14 -31 -26.5 -73t-21.5 -87t-14.5 -89t-5.5 -80q0 -51 18 -79t51 -28q58 0 99 88q13 28 25.5 71t22 91t15.5 95t6 85q0 51 -17.5 78t-49.5 27zM429 709q119 0 180 -65.5t61 -193.5q0 -111 -37 -208.5t-104 -163.5q-46 -45 -107 -68.5
t-129 -23.5q-96 0 -161 45q-89 64 -89 217q0 121 43 222.5t120 164.5q48 38 101.5 56t121.5 18z" />
    <glyph glyph-name="sterling" unicode="&#xa3;" 
d="M215 81q-17 15 -28 23.5t-19 13t-15.5 6t-16.5 1.5q-17 0 -28.5 -10t-11.5 -26q0 -15 11.5 -24.5t30.5 -9.5q34 0 77 26zM534 9q-28 -11 -52 -15t-51 -4q-80 0 -146 42q-45 -26 -75.5 -36t-65.5 -10q-60 0 -97.5 29t-37.5 77q0 25 10 46.5t28 37.5t42 25t52 9q32 0 63 -9
t75 -30q14 22 14 59q0 24 -6.5 48t-21.5 56h-113l16 73h63q-15 30 -21 52t-6 48q0 43 18 80t50 64t75 42.5t93 15.5q42 0 83.5 -10t87.5 -32l-25 -114q-61 62 -131 62q-30 0 -50 -18.5t-20 -45.5q0 -14 4 -29.5t15 -41.5l11.5 -27t10.5 -27q4 -7 7 -19h120l-16 -73h-89
q2 -13 2 -20.5v-15.5q0 -49 -14.5 -86.5t-48.5 -78.5q15 -3 26 -4t23 -1q79 0 134 47z" />
    <glyph glyph-name="dollar" unicode="$" horiz-adv-x="528" 
d="M407 682q29 -4 55.5 -11t51.5 -18l-8 -128q-25 20 -44.5 33.5t-37.5 22t-35.5 12t-37.5 3.5q-34 0 -54 -14.5t-20 -40.5q0 -14 3.5 -25t14.5 -24t33 -31.5l58 -47.5q29 -23 49 -43.5t32 -40.5t17 -42t5 -49q0 -63 -32.5 -113.5t-92.5 -82.5q-26 -14 -53.5 -20.5
t-65.5 -9.5l-25 -118h-65l26 120q-88 8 -143 35l-17 133q31 -23 56 -38.5t47.5 -25.5t43.5 -14t44 -4q44 0 70 21t26 57q0 15 -3.5 26.5t-14.5 25.5t-30.5 32.5t-52.5 45.5q-31 25 -51.5 46.5t-33 42t-18 41.5t-5.5 46q0 89 64 141.5t180 58.5l26 117h64z" />
    <glyph glyph-name="cent" unicode="&#xa2;" horiz-adv-x="507" 
d="M402 617q31 -2 51 -5.5t41 -11.5l-9 -114q-30 27 -51.5 37.5t-47.5 10.5q-29 0 -53.5 -16.5t-42.5 -46t-28 -70t-10 -88.5q0 -57 23 -87t68 -30q36 0 72.5 17t84.5 56l-60 -126q-40 -16 -75 -24t-76 -10l-21 -96h-60l21 97q-78 11 -118 58.5t-40 129.5q0 73 30 139.5
t83 111.5q35 29 70.5 44t87.5 23l20 94h60z" />
    <glyph glyph-name="florin" unicode="&#x192;" horiz-adv-x="591" 
d="M577 486l-25 -73h-126l-112 -323q-15 -45 -30 -81t-30.5 -65t-33 -53.5t-37.5 -45.5q-32 -35 -79 -55t-97 -20q-29 0 -53 5.5t-49 18.5l63 64q12 -8 19.5 -11t18.5 -3q20 0 36 12t27 34q6 12 9.5 20t9 22l14 37.5l23.5 66.5l130 377h-68l94 77q10 30 20 53.5t22 42.5
t25.5 34.5t31.5 29.5q73 59 181 59q33 0 61.5 -4.5t55.5 -13.5l-89 -106q-17 36 -49 36q-23 0 -39 -17t-30 -59l-20 -59h126z" />
    <glyph glyph-name="yen" unicode="&#xa5;" horiz-adv-x="620" 
d="M637 459l-14 -63h-130l-60 -83h172l-14 -63h-172l-22 -97q-5 -26 -8.5 -49t-3.5 -38q0 -17 5 -30t22 -36h-281q18 14 31 27.5t22.5 30.5t16.5 40t14 55l21 97h-171l14 63h171q-5 17 -8.5 27.5l-6 18.5t-5.5 16t-7 21h-126l14 63h86q-36 81 -69.5 138.5t-64.5 92.5
q58 19 113 19q57 0 93.5 -26t67.5 -89l8.5 -19.5l12 -27.5t18.5 -44.5l28 -69.5l117 174q17 25 22 35.5t5 18.5q0 16 -22 34h187l-38.5 -50l-25.5 -33l-110 -153h98z" />
    <glyph glyph-name="period" unicode="." horiz-adv-x="324" 
d="M142 188q42 0 66 -23.5t24 -63.5q0 -49 -29 -80t-75 -31q-43 0 -68.5 26t-25.5 70q0 45 30 73.5t78 28.5z" />
    <glyph glyph-name="colon" unicode=":" horiz-adv-x="324" 
d="M142 188q42 0 66 -23.5t24 -63.5q0 -49 -29 -80t-75 -31q-43 0 -68.5 26t-25.5 70q0 45 30 73.5t78 28.5zM210 492q42 0 66 -23t24 -64q0 -49 -29 -80t-75 -31q-43 0 -68.5 26t-25.5 70q0 45 30 73.5t78 28.5z" />
    <glyph glyph-name="periodcentered" unicode="&#xb7;" horiz-adv-x="324" 
d="M178 348q42 0 66 -23t24 -64q0 -49 -29 -80t-75 -31q-43 0 -68.5 26t-25.5 70q0 45 30 73.5t78 28.5z" />
    <glyph glyph-name="ellipsis" unicode="&#x2026;" horiz-adv-x="972" 
d="M790 188q42 0 66 -23.5t24 -63.5q0 -49 -29 -80t-75 -31q-43 0 -68.5 26t-25.5 70q0 45 30 73.5t78 28.5zM466 188q42 0 66 -23.5t24 -63.5q0 -49 -29 -80t-75 -31q-43 0 -68.5 26t-25.5 70q0 45 30 73.5t78 28.5zM142 188q42 0 66 -23.5t24 -63.5q0 -49 -29 -80t-75 -31
q-43 0 -68.5 26t-25.5 70q0 45 30 73.5t78 28.5z" />
    <glyph glyph-name="comma" unicode="," horiz-adv-x="321" 
d="M-12 -113q103 36 128 104q-85 12 -85 93q0 48 29 77t76 29q42 0 66.5 -23.5t24.5 -62.5q0 -34 -13 -68.5t-36 -65.5t-54 -56t-68 -40z" />
    <glyph glyph-name="semicolon" unicode=";" horiz-adv-x="324" 
d="M-12 -113q103 36 128 104q-85 12 -85 93q0 48 29 77t76 29q42 0 66.5 -23.5t24.5 -62.5q0 -34 -13 -68.5t-36 -65.5t-54 -56t-68 -40zM210 492q42 0 66 -23.5t24 -63.5q0 -49 -29 -80t-75 -31q-43 0 -68.5 26t-25.5 70q0 45 30 73.5t78 28.5z" />
    <glyph glyph-name="semicolon" unicode="&#x37e;" horiz-adv-x="324" 
d="M-12 -113q103 36 128 104q-85 12 -85 93q0 48 29 77t76 29q42 0 66.5 -23.5t24.5 -62.5q0 -34 -13 -68.5t-36 -65.5t-54 -56t-68 -40zM210 492q42 0 66 -23.5t24 -63.5q0 -49 -29 -80t-75 -31q-43 0 -68.5 26t-25.5 70q0 45 30 73.5t78 28.5z" />
    <glyph glyph-name="quoteleft" unicode="&#x2018;" horiz-adv-x="306" 
d="M353 696q-101 -36 -128 -104q85 -12 85 -93q0 -48 -29 -77t-76 -29q-41 0 -66 24t-25 62q0 34 13 68.5t36 65.5t54.5 56t67.5 40z" />
    <glyph glyph-name="quotedblright" unicode="&#x201d;" horiz-adv-x="543" 
d="M332 406q49 16 82.5 43t45.5 60q-85 13 -85 94q0 48 29 77t76 29q41 0 66 -24t25 -62q0 -34 -13 -69t-36.5 -66t-54.5 -56t-67 -39zM95 406q49 16 82 42.5t46 60.5q-85 13 -85 94q0 48 29 77t76 29q42 0 66.5 -24t24.5 -62q0 -35 -13 -69.5t-36.5 -65.5t-54.5 -56
t-67 -39z" />
    <glyph glyph-name="quotedblleft" unicode="&#x201c;" horiz-adv-x="543" 
d="M589 696q-51 -17 -83.5 -43.5t-44.5 -60.5q85 -12 85 -93q0 -48 -29 -77t-76 -29q-41 0 -66 24t-25 62q0 34 13 68.5t36 65.5t54.5 56t67.5 40zM352 696q-101 -36 -128 -104q85 -12 85 -93q0 -48 -29 -77t-76 -29q-41 0 -66 24t-25 62q0 34 13 68.5t36 65.5t54.5 56
t67.5 40z" />
    <glyph glyph-name="quotedblbase" unicode="&#x201e;" horiz-adv-x="543" 
d="M217 -113q102 36 128 104q-85 12 -85 93q0 48 29 77t76 29q41 0 66 -24t25 -62q0 -34 -13 -68.5t-36 -65.5t-54.5 -56t-67.5 -40zM-20 -113q103 36 128 104q-85 12 -85 93q0 48 29 77t76 29q42 0 66.5 -23.5t24.5 -62.5q0 -34 -13 -68.5t-36 -65.5t-54 -56t-68 -40z" />
    <glyph glyph-name="exclam" unicode="!" horiz-adv-x="448" 
d="M218 188q42 0 66 -23.5t24 -63.5q0 -49 -29 -80t-75 -31q-43 0 -68.5 26t-25.5 70q0 45 30 73.5t78 28.5zM441 695l-9 -13t-7.5 -14t-7 -18.5l-8.5 -25.5l-101 -319q-10 -30 -10 -47q0 -5 3 -24h-133q5 8 8 15.5t5.5 16t3.5 19.5t3 26l29 304q1 11 1.5 17.5t1 10.5
t0.5 6.5v7.5q0 12 -1.5 19.5t-5.5 18.5h228z" />
    <glyph glyph-name="exclamdown" unicode="&#xa1;" horiz-adv-x="448" 
d="M252 490q42 0 67.5 -26.5t25.5 -68.5q0 -46 -29.5 -74.5t-76.5 -28.5q-44 0 -68 23t-24 65q0 48 29.5 79t75.5 31zM12 -213q5 7 8.5 13t7 14t7 18.5l8.5 25.5l102 319q6 21 8 29.5t2 16.5t-4 25h134q-5 -8 -8 -15.5t-5.5 -15.5t-4 -19l-3.5 -27l-28 -304l-1.5 -16.5
t-1 -9.5t-0.5 -7v-8q0 -12 1 -20t5 -19h-227z" />
    <glyph glyph-name="question" unicode="?" horiz-adv-x="521" 
d="M224 188q42 0 66 -23.5t24 -63.5q0 -49 -29 -80t-75 -31q-43 0 -68.5 26t-25.5 70q0 45 30 73.5t78 28.5zM172 234q0 31 4.5 53.5t15.5 40.5t31 34t51 35q84 54 84 116q0 36 -27.5 60t-69.5 24q-33 0 -63 -12t-70 -41l50 139q40 14 77.5 20t85.5 6q103 0 158.5 -43.5
t55.5 -123.5q0 -82 -56 -138q-14 -15 -42.5 -32.5t-77.5 -43.5q-29 -14 -46.5 -24.5t-28 -19t-14 -16t-3.5 -16.5v-7.5t2 -10.5h-117z" />
    <glyph glyph-name="questiondown" unicode="&#xbf;" horiz-adv-x="521" 
d="M319 490q42 0 67.5 -26.5t25.5 -68.5q0 -46 -29.5 -74.5t-76.5 -28.5q-44 0 -68 23t-24 65q0 48 29.5 79t75.5 31zM353 248q0 -32 -4.5 -54t-15.5 -40t-31 -34t-51 -35q-84 -54 -84 -116q0 -36 27.5 -60t69.5 -24q33 0 62.5 12t70.5 41l-50 -138q-41 -15 -77 -21t-84 -6
q-104 0 -160 43t-56 124q0 40 14.5 75.5t41.5 62.5q14 15 42.5 32.5t77.5 42.5q28 15 46 25.5t28.5 19t14 16.5t3.5 17v6.5t-2 10.5h117z" />
    <glyph glyph-name="guillemotright" unicode="&#xbb;" horiz-adv-x="511" 
d="M94 409h89l118 -155l-167 -144h-105l134 144zM282 409h84l115 -155l-142 -144h-103l114 144z" />
    <glyph glyph-name="guillemotleft" unicode="&#xab;" horiz-adv-x="511" 
d="M429 110h-89l-118 155l167 144h105l-134 -144zM241 110h-84l-115 155l142 144h103l-114 -144z" />
    <glyph glyph-name="guilsinglright" unicode="&#x203a;" horiz-adv-x="323" 
d="M93 409h85l115 -155l-142 -144h-103l114 144z" />
    <glyph glyph-name="guilsinglleft" unicode="&#x2039;" horiz-adv-x="323" 
d="M241 110h-84l-115 155l142 144h103l-114 -144z" />
    <glyph glyph-name="slash" unicode="/" horiz-adv-x="591" 
d="M636 720l-532 -786h-106l532 786h106z" />
    <glyph glyph-name="hyphen" unicode="-" horiz-adv-x="365" 
d="M209 287q28 0 48 1t36 3.5t30 7t30 11.5l-91 -119h-48q-44 0 -72 -1t-48 -3t-36.5 -7t-36.5 -12l93 119h95z" />
    <glyph glyph-name="endash" unicode="&#x2013;" horiz-adv-x="456" 
d="M300 287q28 0 48 1t36 3.5t30 7t30 11.5l-91 -119h-139q-44 0 -72 -1t-48 -3t-36.5 -7t-36.5 -12l93 119h186z" />
    <glyph glyph-name="emdash" unicode="&#x2014;" horiz-adv-x="610" 
d="M454 287q28 0 48 1t36 3.5t30 7t30 11.5l-91 -119h-293q-44 0 -72 -1t-48 -3t-36.5 -7t-36.5 -12l93 119h340z" />
    <glyph glyph-name="parenleft" unicode="(" horiz-adv-x="337" 
d="M430 713q-27 -26 -47.5 -48.5t-38 -45.5t-32.5 -47.5t-30 -53.5q-88 -168 -88 -353q0 -140 53 -296h-79q-30 54 -51 100t-34.5 89t-19.5 83.5t-6 83.5q0 94 32.5 178.5t103.5 171.5q17 21 33 38.5t33 34t35.5 32.5t41.5 33h94z" />
    <glyph glyph-name="parenright" unicode=")" horiz-adv-x="337" 
d="M-66 -131q27 25 47.5 47.5t38 45t32.5 47t31 54.5q88 167 88 353q0 71 -12.5 141.5t-41.5 155.5h80q30 -54 50.5 -100.5t34 -89t19.5 -83.5t6 -83q0 -95 -32.5 -178.5t-103.5 -171.5q-18 -23 -34 -41t-33 -34.5t-35 -31.5t-40 -31h-95z" />
    <glyph glyph-name="bracketleft" unicode="[" horiz-adv-x="337" 
d="M398 644h-80l-157 -707h80l-15 -68h-248q15 10 24 18t15.5 22t12.5 38l16 67l123 557q7 30 11 56t4 38q0 16 -6 26.5t-21 21.5h256z" />
    <glyph glyph-name="bracketright" unicode="]" horiz-adv-x="337" 
d="M-34 -63h80l157 707h-80l15 69h248q-15 -11 -24 -19t-15.5 -22t-12.5 -38l-16 -67l-123 -557q-6 -29 -9 -45l-4.5 -24.5t-1.5 -13.5v-11q0 -15 6 -25.5t21 -21.5h-256z" />
    <glyph glyph-name="ampersand" unicode="&#x26;" horiz-adv-x="768" 
d="M415 487q40 11 57 27.5t17 44.5q0 29 -18 48t-45 19q-23 0 -38 -13.5t-15 -34.5q0 -20 9.5 -40t32.5 -51zM302 317q-83 -25 -83 -97q0 -48 33 -79.5t83 -31.5q23 0 40.5 6t39.5 21l-28 42l-34 53l-31 51zM464 68q-28 -24 -52 -40.5t-48 -26t-50 -14t-56 -4.5
q-51 0 -92.5 14t-70.5 39.5t-45 61.5t-16 81q0 82 49 136.5t159 95.5q-22 36 -30 60.5t-8 53.5q0 42 16.5 76t47 58t73 37t95.5 13q91 0 141.5 -37.5t50.5 -105.5q0 -39 -17 -73t-46 -55l-17.5 -11.5t-19 -11l-23.5 -12t-32 -14.5q39 -64 87 -133.5l112 -156.5
q28 -37 49.5 -60.5t41.5 -38t40.5 -20t46.5 -6.5q-38 -35 -77 -51t-85 -16t-82.5 18.5t-73.5 60.5q-7 7 -13.5 15l-14 17.5l-17.5 21.5z" />
    <glyph glyph-name="section" unicode="&#xa7;" 
d="M284 387q-20 -23 -27.5 -39.5t-7.5 -34.5q0 -9 1.5 -16t6.5 -14.5t14 -16t23 -20.5l108 -93q20 20 28.5 36t8.5 35q0 15 -7.5 27.5t-24.5 27.5zM40 -3q86 -79 186 -79q38 0 62.5 16t24.5 42q0 16 -8.5 30t-29.5 32q-2 2 -4.5 4t-10 7.5l-22.5 17l-42 32.5
q-56 44 -80.5 82.5t-24.5 84.5q0 57 32 101.5t91 69.5q-22 23 -31 44.5t-9 49.5q0 84 66 131t184 47q51 0 91.5 -7t79.5 -23l-15 -123q-67 64 -133 64q-33 0 -55 -16.5t-22 -41.5q0 -23 15.5 -43.5t53.5 -47.5q43 -31 72 -56t45.5 -48t23.5 -47t7 -53q0 -60 -29 -101.5
t-89 -69.5q21 -23 30.5 -46t9.5 -49q0 -34 -17 -66t-47 -54q-71 -52 -195 -52q-34 0 -61.5 2.5t-52.5 8.5t-48 16t-48 24v117z" />
    <glyph glyph-name="dagger" unicode="&#x2020;" 
d="M144 -160q13 8 21.5 16t14.5 20.5t11.5 33t13.5 53.5l85 387h-89q-24 0 -39 -1t-26.5 -4t-20.5 -9t-21 -16l37 166q13 -22 32 -29.5t61 -7.5h88l30 132q8 38 8 60q0 17 -5 28.5t-19 25.5h216q-27 -17 -33 -27q-7 -13 -12 -29l-8 -31l-8 -29l-29 -130h101q19 0 31.5 1
t22 4.5t18.5 9.5t21 16l-37 -166q-9 12 -16 19t-15 10.5t-19 5t-27 1.5h-102l-87 -397q-5 -17 -6.5 -30.5t-1.5 -24.5q0 -17 5.5 -30t19.5 -28h-216z" />
    <glyph glyph-name="daggerdbl" unicode="&#x2021;" 
d="M496 196q19 0 31 1t22 4.5t19 9.5t21 16l-37 -166q-9 12 -16 19t-15.5 11t-19 5t-26.5 1h-101l-33 -144q-3 -17 -5 -31t-2 -24q0 -17 5.5 -30t19.5 -28h-216q13 9 21.5 16.5t14.5 20t11.5 33t13.5 53.5l29 134h-89q-24 0 -39.5 -1t-26.5 -4t-20 -9t-21 -16l37 167
q6 -11 14 -18.5t18.5 -12t25 -6t35.5 -1.5h88l35 154h-90q-24 0 -39.5 -1t-26.5 -4t-20.5 -9t-20.5 -16l37 166q13 -22 32.5 -29.5t60.5 -7.5h88l30 132q3 16 5.5 33.5t2.5 28.5q0 15 -5 26.5t-19 25.5h216q-27 -17 -33 -27q-8 -13 -16 -44l-12 -45l-29 -130h101
q19 0 31.5 1t22 4.5t18.5 9.5t21 16l-37 -166q-9 12 -16 19t-15 10.5t-19 5t-27 1.5h-102l-34 -154h101z" />
    <glyph glyph-name="asterisk" unicode="*" 
d="M500 726l-35 -55l-22 -74l67 29l51 39l28 -126l-71 13l-71 -13l33 -51l55 -40l-111 -74l-7 72l-29 57l-55 -58l-35 -65l-81 82l70 34l54 46l-65 11l-64 -10l62 124l45 -43l54 -27l11 68l-13 61h129z" />
    <glyph glyph-name="quotesingle" unicode="'" horiz-adv-x="443" 
d="M221 424l35 278h140l-85 -278h-90z" />
    <glyph glyph-name="quotedbl" unicode="&#x22;" 
d="M422 424l35 278h139l-84 -278h-90zM241 424l35 278h140l-85 -278h-90z" />
    <glyph glyph-name="at" unicode="@" horiz-adv-x="840" 
d="M399 167q-13 -5 -21 -6t-20 -1q-53 0 -82.5 29.5t-29.5 81.5q0 57 26.5 111.5t71.5 91.5q35 29 74.5 42t89.5 13h15t13.5 -1t20 -2.5t34.5 -4.5q5 -1 11 -1h13q20 0 34 3.5t35 12.5l-73 -238q-5 -15 -8 -28.5t-3 -21.5q0 -17 20 -17q19 0 38.5 9.5t32.5 25.5
q26 32 42.5 79t16.5 92q0 43 -18.5 80t-51.5 64t-78.5 42t-99.5 15q-73 0 -134 -22.5t-104.5 -62.5t-68 -96t-24.5 -123q0 -63 21 -114.5t60 -87.5t94.5 -55.5t124.5 -19.5q35 0 66 5t60.5 16t59 28t62.5 42l-20 -94q-57 -36 -114 -52t-131 -16q-89 0 -160 23.5t-121 67
t-77 105.5t-27 139q0 85 32.5 156t91 122.5t139 80.5t176.5 29q78 0 140.5 -19t107 -54t68 -84.5t23.5 -111.5t-21.5 -114t-59 -89.5t-90 -59t-113.5 -21.5q-102 0 -102 76q0 13 2 24.5t10 35.5l48 157q-9 6 -15 8.5t-14 2.5q-14 0 -27.5 -8.5t-23.5 -22.5q-23 -32 -37 -73
t-14 -74q0 -21 11.5 -34.5t29.5 -13.5q4 0 7 0.5t8 2.5z" />
    <glyph glyph-name="numbersign" unicode="#" 
d="M287 283h93l48 133h-92zM457 493l74 202h123l-75 -202h109l-28 -77h-109l-49 -133h109l-29 -77h-108l-76 -206h-122l75 206h-92l-76 -206h-122l75 206h-107l28 77h107l49 133h-107l28 77h108l73 202h123l-74 -202h93z" />
    <glyph glyph-name="degree" unicode="&#xb0;" 
d="M401 632q-17 0 -32 -7t-26 -18.5t-17.5 -27t-6.5 -33.5q0 -36 24.5 -61.5t59.5 -25.5q17 0 32 7t26 18.5t17.5 27t6.5 33.5q0 37 -24.5 62t-59.5 25zM404 709q34 0 64 -13t52.5 -35.5t35.5 -52.5t13 -63q0 -34 -13 -63.5t-35.5 -52t-53 -35.5t-64.5 -13q-35 0 -65.5 13
t-53.5 35t-36 52t-13 64t13 64t36 52.5t53.5 35t66.5 12.5z" />
    <glyph glyph-name="plus" unicode="+" 
d="M115 299v97h195v188h97v-188h195v-97h-195v-188h-97v188h-195z" />
    <glyph glyph-name="divide" unicode="&#xf7;" 
d="M359 627q34 0 58 -24.5t24 -58.5q0 -35 -24 -59t-59 -24q-17 0 -32.5 6.5t-26.5 18t-17.5 26.5t-6.5 33q0 34 24.5 58t59.5 24zM359 233q34 0 58 -24.5t24 -58.5q0 -35 -24 -59t-59 -24q-17 0 -32.5 6.5t-26.5 18t-17.5 26.5t-6.5 33q0 34 24.5 58t59.5 24zM115 396h487
v-97h-487v97z" />
    <glyph glyph-name="equal" unicode="=" 
d="M115 397v97h487v-97h-487zM115 202v97h487v-97h-487z" />
    <glyph glyph-name="trademark" unicode="&#x2122;" horiz-adv-x="859" 
d="M597 352q-14 9 -22.5 16.5t-14.5 16t-9.5 19.5t-6.5 28l-26 118l-37 -127q-5 -17 -7 -25.5t-2 -14.5t2.5 -12t10.5 -16l6 -7h-127l14.5 11.5l8.5 7t4.5 4.5t4.5 5q3 5 5.5 12l7.5 21l61 199l9.5 33t4.5 19q0 14 -18 35h134q-1 -4 -1 -7v-5q0 -8 1 -16t6 -25l3 -15
l29 -130l78 128l10.5 18t10.5 19l6 10.5t11 22.5h144q-12 -9 -18.5 -16t-10.5 -14t-6 -16t-3 -22l-20 -209q-1 -8 -1.5 -15t-0.5 -12q0 -11 4.5 -19.5t19.5 -23.5h-170q11 9 17.5 15.5t10.5 13.5t5.5 16t3.5 24l13 132l-127 -210zM404 615q-17 15 -27.5 20t-27.5 5h-25
l-49 -223l-5 -20q-1 -5 -1.5 -8t-0.5 -6q0 -11 15 -27l6 -8h-173q18 13 23 17t10 10q3 5 6 14t8 28l49 222q-8 2 -13.5 2h-11.5q-23 0 -40.5 -5.5t-39.5 -19.5l43 85q21 -6 55 -6h159q31 0 46.5 1t31.5 4z" />
    <glyph glyph-name="paragraph" unicode="&#xb6;" horiz-adv-x="706" 
d="M370 625q-116 -4 -116 -165q0 -61 22.5 -96.5t76.5 -57.5q-16 -4 -25.5 -5t-22.5 -1q-49 0 -90.5 15t-71.5 42t-46.5 64t-16.5 81q0 47 18.5 86t52.5 63q17 13 35.5 21.5t42.5 13.5t55 7t73 2h320q-14 -11 -23 -21.5t-14 -25.5t-6.5 -36.5t-1.5 -55.5v-730h-111v799h-42
v-799h-109v799z" />
    <glyph glyph-name="currency" unicode="&#xa4;" 
d="M356 456q-21 0 -40.5 -8.5t-33.5 -23.5t-22.5 -34.5t-8.5 -41.5q0 -23 8.5 -42.5t23 -34.5t34 -23.5t41.5 -8.5t41.5 8.5t34 23.5t23 34.5t8.5 42.5q0 22 -8.5 42t-23 34.5t-34.5 23t-43 8.5zM474 162q-54 -33 -116 -33q-65 0 -117 34l-80 -81l-69 69l80 80
q-33 54 -33 117q0 59 33 116l-80 80l69 69l80 -80q58 33 116 33q60 0 117 -33l80 80l69 -69l-80 -80q33 -56 33 -116q0 -63 -33 -117l80 -80l-69 -69z" />
    <glyph glyph-name="quotesinglbase" unicode="&#x201a;" horiz-adv-x="306" 
d="M-20 -113q103 36 128 104q-85 12 -85 93q0 48 29 77t76 29q42 0 66.5 -23.5t24.5 -62.5q0 -34 -13 -68.5t-36 -65.5t-54 -56t-68 -40z" />
    <glyph glyph-name="quoteright" unicode="&#x2019;" horiz-adv-x="306" 
d="M95 406q49 16 82 42.5t46 60.5q-85 13 -85 94q0 48 29 77t76 29q42 0 66.5 -24t24.5 -62q0 -35 -13 -69.5t-36.5 -65.5t-54.5 -56t-67 -39z" />
    <glyph glyph-name="braceleft" unicode="{" horiz-adv-x="337" 
d="M287 440q-8 -35 -18 -59.5t-23.5 -42t-32 -28t-43.5 -16.5q32 -13 46 -32.5t14 -51.5q0 -14 -2 -29t-7 -37l-32 -147q-5 -17 -5.5 -21.5t-0.5 -11.5q0 -30 34 -30h28l-14 -65h-127q-64 0 -64 47q0 17 4 33l46 209l6 29t3 15.5t1 8.5v6q0 23 -16.5 35t-52.5 16l13 56
q24 0 41.5 4.5t29.5 17t20.5 33t15.5 52.5l38 175l9.5 39t7 25t6.5 15t7 10q5 5 11.5 8.5t16.5 5.5t24.5 3t35.5 1h111l-15 -65h-21q-16 0 -26.5 -2.5t-17 -10.5t-11.5 -22t-10 -38z" />
    <glyph glyph-name="braceright" unicode="}" horiz-adv-x="341" 
d="M77 144q7 33 17 57.5t24 42.5t32.5 30t43.5 20q-32 10 -46 27.5t-14 49.5t8 69l30 135q4 19 5.5 28t1.5 18q0 17 -8 22t-32 5h-21l14 65h115q50 0 66.5 -6t16.5 -26q0 -5 -0.5 -9.5t-2 -12l-4 -20t-7.5 -33.5l-38 -175q-8 -35 -8 -58q0 -27 15 -37.5t53 -11.5l-13 -56
q-28 -3 -46 -9t-29.5 -18t-19 -32t-13.5 -51l-46 -209q-10 -44 -32 -62t-64 -18h-130l14 65h29q25 0 36.5 12.5t19.5 50.5z" />
    <glyph glyph-name="ordfeminine" unicode="&#xaa;" horiz-adv-x="417" 
d="M393 378q-3 -15 -3 -24q0 -14 17 -14q8 0 14.5 1.5t18.5 6.5l-46 -65q-17 -8 -30.5 -10.5t-30.5 -2.5q-35 0 -53.5 15.5t-18.5 44.5v8.5t1 8l2.5 11.5l4.5 20l28 128q-14 7 -25 7q-14 0 -27 -10.5t-23 -27.5t-16 -40t-6 -48q0 -49 32 -49q4 0 7 0.5t8 2.5l-39 -65
q-11 -4 -18 -5t-17 -1q-48 0 -76.5 30.5t-28.5 83.5q0 41 18.5 80t51.5 66q29 24 64 35.5t81 11.5h13.5t12 -0.5t17 -2t28.5 -3.5q5 -1 9.5 -1h11.5q17 0 30.5 3t33.5 11z" />
    <glyph glyph-name="ordmasculine" unicode="&#xba;" horiz-adv-x="394" 
d="M255 513q-13 0 -24 -9.5t-19.5 -26t-13.5 -38t-5 -46.5q0 -59 34 -59q29 0 45 40q7 17 11.5 41.5t4.5 44.5q0 53 -33 53zM260 577q75 0 115.5 -33.5t40.5 -96.5q0 -39 -14 -72t-39.5 -56t-60.5 -36t-78 -13q-78 0 -118.5 32.5t-40.5 95.5q0 83 52.5 131t142.5 48z" />
    <glyph glyph-name="plusminus" unicode="&#xb1;" 
d="M84 97h487v-97h-487v97zM84 320v97h195v188h97v-188h195v-97h-195v-188h-97v188h-195z" />
    <glyph glyph-name="fraction" unicode="&#x2044;" horiz-adv-x="146" 
d="M384 695l-472 -695h-99l471 695h100z" />
    <glyph glyph-name="fraction" unicode="&#x2215;" horiz-adv-x="146" 
d="M384 695l-472 -695h-99l471 695h100z" />
    <glyph glyph-name="percent" unicode="%" horiz-adv-x="741" 
d="M565 241q-13 0 -25 -10.5t-21 -28.5t-14.5 -41t-5.5 -48q0 -23 10 -35.5t27 -12.5q13 0 25 10t20.5 27.5t13.5 41t5 51.5q0 21 -9.5 33.5t-25.5 12.5zM581 310q61 0 93.5 -32t32.5 -92q0 -42 -13.5 -77.5t-38 -61t-58 -40t-72.5 -14.5q-63 0 -98.5 33.5t-35.5 92.5
q0 45 19 86.5t53 67.5q46 37 118 37zM685 695l-486 -695h-91l486 695h91zM257 633q-13 0 -25 -10.5t-21 -28.5t-14.5 -41.5t-5.5 -48.5q0 -47 37 -47q28 0 46 37t18 94q0 20 -9.5 32.5t-25.5 12.5zM273 702q61 0 93.5 -32t32.5 -92q0 -42 -13.5 -77.5t-38 -61t-58 -40
t-72.5 -14.5q-63 0 -98.5 33t-35.5 92q0 46 19 87.5t53 67.5q46 37 118 37z" />
    <glyph glyph-name="perthousand" unicode="&#x2030;" horiz-adv-x="1097" 
d="M921 241q-13 0 -25 -10.5t-21 -28.5t-14.5 -41.5t-5.5 -48.5q0 -47 37 -47q13 0 25 10t20.5 27.5t13.5 41t5 51.5q0 21 -9.5 33.5t-25.5 12.5zM937 310q61 0 93.5 -32t32.5 -92q0 -42 -13.5 -77t-38 -61t-58 -40.5t-72.5 -14.5q-63 0 -98.5 33t-35.5 93q0 45 19 86.5
t53 67.5q44 37 118 37zM565 241q-13 0 -25 -10.5t-21 -28.5t-14.5 -41t-5.5 -48q0 -23 10 -35.5t27 -12.5q13 0 25 10t20.5 27.5t13.5 41t5 51.5q0 21 -9.5 33.5t-25.5 12.5zM581 310q61 0 93.5 -32t32.5 -92q0 -42 -13.5 -77.5t-38 -61t-58 -40t-72.5 -14.5
q-63 0 -98.5 33.5t-35.5 92.5q0 45 19 86.5t53 67.5q46 37 118 37zM685 695l-486 -695h-91l486 695h91zM257 633q-13 0 -25 -10.5t-21 -28.5t-14.5 -41.5t-5.5 -48.5q0 -47 37 -47q28 0 46 37t18 94q0 20 -9.5 32.5t-25.5 12.5zM273 702q61 0 93.5 -32t32.5 -92
q0 -42 -13.5 -77.5t-38 -61t-58 -40t-72.5 -14.5q-63 0 -98.5 33t-35.5 92q0 46 19 87.5t53 67.5q46 37 118 37z" />
    <glyph glyph-name="backslash" unicode="\" horiz-adv-x="591" 
d="M457 -66h-91l-189 786h91z" />
    <glyph glyph-name="dieresis" unicode="&#xa8;" horiz-adv-x="525" 
d="M432 703q30 0 47 -17.5t17 -46.5q0 -35 -21.5 -57.5t-54.5 -22.5q-32 0 -50 18t-18 50q0 34 22.5 55t57.5 21zM234 703q29 0 46 -17t17 -47q0 -35 -21.5 -57.5t-54.5 -22.5q-32 0 -50 18t-18 50q0 34 22.5 55t58.5 21z" />
    <glyph glyph-name="dotaccent" unicode="&#x2d9;" horiz-adv-x="525" 
d="M333 710q32 0 51 -19t19 -51q0 -39 -23.5 -63.5t-60.5 -24.5q-35 0 -54.5 20t-19.5 54q0 38 24.5 61t63.5 23z" />
    <glyph glyph-name="ring" unicode="&#x2da;" horiz-adv-x="525" 
d="M336 699q-22 0 -36.5 -14.5t-14.5 -36.5q0 -21 13 -33.5t34 -12.5q23 0 37 15.5t14 39.5q0 20 -12 31t-35 11zM345 763q49 0 78.5 -27.5t29.5 -73.5q0 -55 -35 -89.5t-92 -34.5q-52 0 -80.5 27t-28.5 76q0 54 35.5 88t92.5 34z" />
    <glyph glyph-name="acute" unicode="&#xb4;" horiz-adv-x="525" 
d="M531 687l-237 -143l-60 11l214 199z" />
    <glyph glyph-name="grave" unicode="`" horiz-adv-x="525" 
d="M392 562l-51 -20l-232 142l80 71z" />
    <glyph glyph-name="circumflex" unicode="&#x2c6;" horiz-adv-x="525" 
d="M484 565l-42 -24l-128 79l-134 -78l-47 28l206 168z" />
    <glyph glyph-name="caron" unicode="&#x2c7;" horiz-adv-x="525" 
d="M469 736l46 -30l-205 -166l-145 172l42 23l126 -78z" />
    <glyph glyph-name="breve" unicode="&#x2d8;" horiz-adv-x="525" 
d="M218 716q37 -74 115 -74q82 0 125 72l45 -25q-21 -60 -67 -95t-105 -35q-60 0 -102 33.5t-60 96.5z" />
    <glyph glyph-name="tilde" unicode="&#x2dc;" horiz-adv-x="525" 
d="M132 568l19.5 35t13.5 23t11 15.5t12 14.5q14 16 35.5 25.5t41.5 9.5q9 0 15 -0.5t14.5 -2.5t22 -6l37.5 -11q25 -8 42.5 -11.5t33.5 -3.5q28 0 51 8.5t47 27.5q-18 -35 -29 -52.5t-23 -34.5q-14 -18 -37 -29t-46 -11q-8 0 -14 0.5t-14 2.5t-20.5 6t-33.5 10
q-51 16 -83 16q-26 0 -49 -7.5t-47 -24.5z" />
    <glyph glyph-name="hungarumlaut" unicode="&#x2dd;" horiz-adv-x="521" 
d="M621 698l-212 -156l-58 6l186 206zM430 698l-212 -156l-58 6l186 206z" />
    <glyph glyph-name="cedilla" unicode="&#xb8;" horiz-adv-x="521" 
d="M125 -131q31 -17 66 -17q22 0 35 9t13 23q0 25 -40 25q-8 0 -14 -1t-17 -3l49 95h55l-28 -51h8q29 0 46.5 -16t17.5 -42q0 -40 -34 -63.5t-93 -23.5q-14 0 -24 1t-33 5z" />
    <glyph glyph-name="ogonek" unicode="&#x2db;" horiz-adv-x="521" 
d="M344 0q-35 -21 -54 -46.5t-19 -51.5q0 -16 9.5 -25t26.5 -9q4 0 8 0.5t10 1.5l-35 -55q-8 -2 -12 -2h-10q-40 0 -62.5 18t-22.5 49q0 33 25.5 65t70.5 55h65z" />
    <glyph glyph-name="macron" unicode="&#xaf;" horiz-adv-x="521" 
d="M492 671l-18 -83h-297l18 83h297z" />
    <glyph glyph-name="macron" unicode="&#x2c9;" horiz-adv-x="521" 
d="M492 671l-18 -83h-297l18 83h297z" />
    <glyph glyph-name="copyright" unicode="&#xa9;" horiz-adv-x="788" 
d="M539 164q-29 -13 -54.5 -18t-58.5 -5q-92 0 -145.5 46t-53.5 125q0 52 20.5 96t56.5 76t85.5 50.5t106.5 18.5q28 0 50.5 -3.5t52.5 -13.5l-10 -100q-23 29 -44 40.5t-50 11.5q-27 0 -50.5 -12.5t-40.5 -35t-26.5 -53t-9.5 -66.5q0 -52 24.5 -81.5t68.5 -29.5
q29 0 58.5 10t73.5 35zM445 653q-67 0 -127 -27.5t-105 -74t-71.5 -108t-26.5 -130.5q0 -59 20.5 -108.5t57 -85.5t87 -56.5t109.5 -20.5q69 0 130 27t107 73.5t72.5 108.5t26.5 133q0 59 -20.5 108.5t-58 85t-89 55.5t-112.5 20zM462 709q70 0 129.5 -24.5t103 -67
t68 -101.5t24.5 -128q0 -83 -32 -156t-87 -127.5t-128.5 -86.5t-156.5 -32q-72 0 -132.5 24t-104.5 67t-68.5 102t-24.5 130q0 83 32 156t87.5 127t130 85.5t159.5 31.5z" />
    <glyph glyph-name="registered" unicode="&#xae;" horiz-adv-x="788" 
d="M415 364q31 0 50.5 23t19.5 59q0 23 -13 32t-45 9l-27 -123h15zM189 150q15 10 23.5 17t14 15t8.5 18.5t7 28.5l53 238q3 12 4 19t2 10.5t1 5.5v4q0 8 -4 15t-20 25h171q43 0 69.5 -3t44.5 -11q22 -10 35 -32t13 -50q0 -26 -10.5 -49.5t-28.5 -37.5q-12 -10 -26 -14.5
t-38 -7.5l15 -37q29 -69 49.5 -103.5t43.5 -48.5q-23 -4 -38 -5t-35 -1q-31 0 -52 4.5t-35.5 17t-24.5 34t-20 56.5l-19 69l-22 -98q-5 -20 -6 -27t-1 -12q0 -9 5 -17.5t19 -22.5h-198zM445 653q-67 0 -127 -27.5t-105 -74t-71.5 -108t-26.5 -130.5q0 -59 20.5 -108.5
t57 -85.5t87 -56.5t109.5 -20.5q69 0 130 27t107 73.5t72.5 108.5t26.5 133q0 59 -20.5 108.5t-58 85t-89 55.5t-112.5 20zM462 709q70 0 129.5 -24.5t103 -67t68 -101.5t24.5 -128q0 -83 -32 -156t-87 -127.5t-128.5 -86.5t-156.5 -32q-72 0 -132.5 24t-104.5 67t-68.5 102
t-24.5 130q0 83 32 156t87.5 127t130 85.5t159.5 31.5z" />
    <glyph glyph-name="Acircumflex" unicode="&#xc2;" horiz-adv-x="682" 
d="M635 780l-38 -25l-163 63l-162 -62l-44 30l230 150zM410 304l-33 229l-129 -229h162zM633 107q4 -25 7.5 -40.5t8 -27t11 -20t17.5 -19.5h-278q27 20 36 32t9 28q0 13 -3 30l-2 17l-14 100h-231l-40 -71q-24 -42 -33.5 -63t-9.5 -33q0 -8 4.5 -15.5t20.5 -24.5h-210
q16 10 26 18t21 22.5t26 39l39 66.5l235 403q18 31 24.5 48.5t6.5 35.5q0 20 -8 34t-26 28h259z" />
    <glyph glyph-name="nonbreakingspace" unicode="&#xa0;" horiz-adv-x="245" 
 />
    <glyph glyph-name="bullet" unicode="&#x2022;" horiz-adv-x="695" 
d="M377 498q29 0 54.5 -11.5t45 -31t31 -46t11.5 -55.5q0 -30 -11.5 -56.5t-31 -46t-45.5 -31t-56 -11.5t-56.5 11.5t-46 31t-31 45.5t-11.5 56t11.5 56.5t31.5 46t46.5 31t57.5 11.5z" />
    <glyph glyph-name="less" unicode="&#x3c;" 
d="M583 509l-339 -161l339 -161v-106l-452 222v90l452 221v-105z" />
    <glyph glyph-name="greater" unicode="&#x3e;" 
d="M584 393v-90l-452 -222v106l340 161l-340 161v105z" />
    <glyph glyph-name="logicalnot" unicode="&#xac;" horiz-adv-x="521" 
d="M325 142h-265v168h452v-310h-187v142z" />
    <glyph glyph-name="asciicircum" unicode="^" horiz-adv-x="521" 
d="M33 353l147 347h212l147 -347h-167l-86 218l-85 -218h-168z" />
    <glyph glyph-name="bar" unicode="|" horiz-adv-x="521" 
d="M382 695v-869h-193v869h193z" />
    <glyph glyph-name="underscore" unicode="_" horiz-adv-x="521" 
d="M546 -52v-112h-521v112h521z" />
    <glyph glyph-name="asciitilde" unicode="~" horiz-adv-x="695" 
d="M121 639q32 81 70 117.5t91 36.5q11 0 21.5 -1.5t25.5 -6t37.5 -13l57.5 -22.5q30 -12 48 -12q9 0 16.5 2.5t15 9t15 18t17.5 28.5l91 -77q-14 -37 -26 -58.5t-26 -39.5q-46 -58 -110 -58q-9 0 -16.5 1t-21 5.5t-35.5 12.5t-60 23q-22 8 -34 11.5t-22 3.5q-18 0 -31 -12
t-33 -46z" />
    <glyph glyph-name="mu" unicode="&#xb5;" horiz-adv-x="603" 
d="M-28 -214l121 565l6.5 33.5t3.5 20t1.5 12.5t0.5 11q0 14 -6 26.5t-20 26.5q31 0 51 0.5t35.5 0.5t30.5 0.5t36 0.5q26 2 41 5t32 12l-67 -301q-6 -29 -8 -40t-2 -21q0 -32 36 -32q30 0 51 21q11 11 18 29t15 54l32 141l6.5 33.5t3.5 20t1.5 12.5t0.5 11q0 14 -6 26
t-20 27q31 0 51 0.5t35.5 0.5t30.5 0.5t36 0.5q26 2 41 5t32 12l-73 -327q-5 -21 -6.5 -33.5t-1.5 -22.5q0 -28 29 -28q11 0 21 2t29 8l-71 -92q-23 -10 -45.5 -15t-45.5 -5q-88 0 -103 78q-63 -78 -131 -78q-15 0 -26 3.5t-24 12.5l-15 -217h-157z" />
    <glyph glyph-name="mu" unicode="&#x3bc;" horiz-adv-x="603" 
d="M-28 -214l121 565l6.5 33.5t3.5 20t1.5 12.5t0.5 11q0 14 -6 26.5t-20 26.5q31 0 51 0.5t35.5 0.5t30.5 0.5t36 0.5q26 2 41 5t32 12l-67 -301q-6 -29 -8 -40t-2 -21q0 -32 36 -32q30 0 51 21q11 11 18 29t15 54l32 141l6.5 33.5t3.5 20t1.5 12.5t0.5 11q0 14 -6 26
t-20 27q31 0 51 0.5t35.5 0.5t30.5 0.5t36 0.5q26 2 41 5t32 12l-73 -327q-5 -21 -6.5 -33.5t-1.5 -22.5q0 -28 29 -28q11 0 21 2t29 8l-71 -92q-23 -10 -45.5 -15t-45.5 -5q-88 0 -103 78q-63 -78 -131 -78q-15 0 -26 3.5t-24 12.5l-15 -217h-157z" />
    <glyph glyph-name="Adieresis" unicode="&#xc4;" horiz-adv-x="682" 
d="M553 924q32 0 51 -19t19 -52q0 -39 -23.5 -63.5t-61.5 -24.5q-34 0 -54 20t-20 55q0 38 24.5 61t64.5 23zM351 924q32 0 51 -19t19 -52q0 -39 -23.5 -63.5t-61.5 -24.5q-35 0 -54.5 20t-19.5 55q0 38 24.5 61t64.5 23zM410 304l-33 229l-129 -229h162zM633 107
q4 -25 7.5 -40.5t8 -27t11 -20t17.5 -19.5h-278q27 20 36 32t9 28q0 13 -3 30l-2 17l-14 100h-231l-40 -71q-24 -42 -33.5 -63t-9.5 -33q0 -8 4.5 -15.5t20.5 -24.5h-210q16 10 26 18t21 22.5t26 39l39 66.5l235 403q18 31 24.5 48.5t6.5 35.5q0 20 -8 34t-26 28h259z" />
    <glyph glyph-name="Aacute" unicode="&#xc1;" horiz-adv-x="682" 
d="M671 857l-271 -106l-60 23l258 167zM410 304l-33 229l-129 -229h162zM633 107q4 -25 7.5 -40.5t8 -27t11 -20t17.5 -19.5h-278q27 20 36 32t9 28q0 13 -3 30l-2 17l-14 100h-231l-40 -71q-24 -42 -33.5 -63t-9.5 -33q0 -8 4.5 -15.5t20.5 -24.5h-210q16 10 26 18t21 22.5
t26 39l39 66.5l235 403q18 31 24.5 48.5t6.5 35.5q0 20 -8 34t-26 28h259z" />
    <glyph glyph-name="Agrave" unicode="&#xc0;" horiz-adv-x="682" 
d="M530 779l-49 -30l-266 105l70 87zM410 304l-33 229l-129 -229h162zM633 107q4 -25 7.5 -40.5t8 -27t11 -20t17.5 -19.5h-278q27 20 36 32t9 28q0 13 -3 30l-2 17l-14 100h-231l-40 -71q-24 -42 -33.5 -63t-9.5 -33q0 -8 4.5 -15.5t20.5 -24.5h-210q16 10 26 18t21 22.5
t26 39l39 66.5l235 403q18 31 24.5 48.5t6.5 35.5q0 20 -8 34t-26 28h259z" />
    <glyph glyph-name="Scaron" unicode="&#x160;" horiz-adv-x="539" 
d="M560 936l42 -31l-229 -149l-177 155l39 25l161 -63zM529 538q-27 22 -48 37t-40.5 24t-38.5 13t-40 4q-38 0 -60 -16.5t-22 -44.5q0 -15 4 -26.5t16.5 -26t35.5 -34.5t62 -51q31 -25 52.5 -46.5t34 -43.5t18 -45.5t5.5 -51.5q0 -53 -21 -97.5t-58.5 -77t-89.5 -51
t-113 -18.5q-115 0 -200 40l-19 143q33 -25 60 -42t51 -27.5t47 -15.5t47 -5q48 0 77.5 23.5t29.5 61.5q0 16 -4 29t-15.5 28t-33 34.5t-56.5 48.5q-33 27 -55.5 50.5t-36 45.5t-19 44.5t-5.5 48.5q0 49 19.5 89t55.5 68.5t87.5 43.5t114.5 15q47 0 85.5 -8t80.5 -25z" />
    <glyph glyph-name="Yacute" unicode="&#xdd;" horiz-adv-x="608" 
d="M637 857l-271 -106l-60 23l258 167zM515 607q11 18 18 32.5t7 22.5q0 16 -20 33h187l-38.5 -49.5l-25.5 -33.5l-216 -299l-36 -160q-5 -26 -8.5 -49t-3.5 -38q0 -17 5 -30t22 -36h-281q18 14 31 27.5t22.5 30.5t16.5 40t14 55l35 159q-11 44 -32.5 98.5t-48 107.5
t-54.5 99t-52 73q35 11 57 15t48 4q31 0 55.5 -6t44.5 -19.5t36.5 -35.5t32.5 -54l8.5 -19t11.5 -27l18 -44.5l29 -70.5z" />
    <glyph glyph-name="Zcaron" unicode="&#x17d;" horiz-adv-x="619" 
d="M621 936l42 -31l-229 -149l-177 155l39 25l161 -63zM-42 0l14 19.5l23 32.5l14.5 20l12.5 18l365 508q-18 2 -29.5 3t-26.5 1q-115 0 -218 -65l78 158h490l-8 -10l-28 -41l-14 -20l-371 -517q23 -2 39 -3t39 -1q45 0 82 4t70 12.5t63.5 23t62.5 35.5l-97 -178h-561z" />
    <glyph glyph-name="scaron" unicode="&#x161;" horiz-adv-x="469" 
d="M453 736l46 -30l-205 -166l-145 172l42 23l126 -78zM433 357q-69 53 -127 53q-25 0 -40.5 -11t-15.5 -29q0 -30 47 -56l42.5 -23.5t27 -17t17.5 -14.5t15 -16q27 -30 27 -78q0 -39 -17 -72t-47 -56.5t-72.5 -36.5t-93.5 -13q-96 0 -174 26l1 119q34 -33 70.5 -48
t82.5 -15q34 0 54.5 12t20.5 32q0 27 -49 52l-42 22t-28.5 17t-20 16t-16.5 19q-27 34 -27 79q0 40 16 72.5t46 55t72 34.5t95 12q43 0 79 -5.5t71 -18.5z" />
    <glyph glyph-name="yacute" unicode="&#xfd;" horiz-adv-x="574" 
d="M556 687l-237 -143l-60 11l214 199zM483 56q-9 -39 -17 -68t-17.5 -52t-20.5 -41.5t-25 -35.5q-33 -41 -84.5 -62t-115.5 -21q-44 0 -82 9t-65.5 25t-43 38.5t-15.5 48.5q0 35 24 57.5t62 22.5q41 0 74 -27q-26 -12 -26 -38q0 -19 17 -30.5t45 -11.5q32 0 53 17t36 55
q5 13 11 37l17 70l7 35q-33 -36 -70.5 -52.5t-85.5 -16.5q-58 0 -90 26t-32 74q0 17 2 33.5t9 45.5l35 157l6.5 33.5t3.5 20t1.5 12.5t0.5 11q0 14 -6 26.5t-20 26.5q31 0 50.5 0.5t34 0.5t28 0.5t34.5 0.5q26 2 40.5 5t32.5 12l-61 -273q-10 -43 -10 -61q0 -32 37 -32
q19 0 33 4.5t24 16.5t17.5 32t14.5 51l25 113q6 27 9 42l4.5 22.5t2 11t0.5 8.5q0 13 -6.5 23.5t-23.5 22.5q34 0 54.5 0.5t35.5 0.5t28.5 0.5t33.5 0.5q28 1 42 4.5t30 12.5z" />
    <glyph glyph-name="zcaron" unicode="&#x17e;" horiz-adv-x="504" 
d="M480 736l46 -30l-205 -166l-145 172l42 23l126 -78zM549 479l-323 -322h15q8 0 18 -0.5t23 -1.5q20 -2 34 -3t22 -1q69 0 145 32l-109 -188q-26 -2 -40.5 -3t-31.5 -1q-11 0 -20 0.5t-21.5 1t-31.5 2t-51 4.5q-30 3 -51 4t-45 1q-45 0 -74 -1.5t-60 -5.5l328 327
q-20 2 -39 3t-35 1q-48 0 -82 -8.5t-67 -28.5l73 188h423z" />
    <glyph glyph-name="Eth" unicode="&#xd0;" horiz-adv-x="721" 
d="M241 101q21 -6 34.5 -8t29.5 -2q46 0 86.5 28t70.5 76t47.5 112.5t17.5 138.5q0 166 -137 166q-11 0 -18 -1t-19 -4l-42 -191h137l-18 -82h-137zM30 334l17 82h74l28 126q13 58 13 87q0 16 -5.5 28.5t-22.5 37.5h303q67 0 113 -10.5t81 -34.5q48 -32 73 -89.5t25 -136.5
q0 -55 -12 -107t-34 -98t-53.5 -84.5t-71.5 -66.5q-26 -18 -53.5 -31t-60 -21.5t-70.5 -12t-85 -3.5h-309q18 14 31 27.5t22 30.5t16 39.5t14 55.5l40 181h-73z" />
    <glyph glyph-name="Lslash" unicode="&#x141;" horiz-adv-x="533" 
d="M-20 0q18 14 30.5 27.5t22 30.5t16.5 39.5t14 55.5l22 98l-89 -52l22 98l88 52l43 193q13 58 13 87q0 16 -5.5 28.5t-22.5 37.5h288q-18 -14 -31 -27.5t-22 -30.5t-16 -39.5t-14 -55.5l-22 -97l175 103l-22 -98l-174 -103l-51 -228q23 -11 47 -16t59 -5q26 0 47.5 3
t41 10t39.5 19.5t44 30.5l-82 -161h-461z" />
    <glyph glyph-name="Thorn" unicode="&#xde;" horiz-adv-x="612" 
d="M373 556q75 0 117 -7t71 -25q28 -17 43.5 -50t15.5 -75q0 -51 -17.5 -93.5t-49.5 -73t-76.5 -47.5t-98.5 -17q-32 0 -56 4.5t-53 16.5q32 2 51.5 9t35.5 22q27 27 43 71t16 93q0 89 -74 89h-11h-7l-70 -320q-6 -27 -9.5 -50t-3.5 -37q0 -17 5.5 -29.5t22.5 -36.5h-288
q18 14 31 27.5t22 30.5t16 39.5t14 55.5l86 389q13 58 13 87q0 16 -5.5 28.5t-22.5 37.5h288q-17 -13 -29.5 -26t-21.5 -29t-16 -36t-13 -48h31z" />
    <glyph glyph-name="lslash" unicode="&#x142;" horiz-adv-x="337" 
d="M385 499l-18 -83l-80 -46l-46 -209q-5 -23 -6 -28.5t-1 -13.5q0 -31 31 -31q10 0 19 2t23 7l-71 -91q-24 -11 -44 -15.5t-43 -4.5q-46 0 -71.5 24.5t-25.5 68.5q0 9 0.5 15.5t1.5 15t3.5 20.5l6.5 31l28 126l-75 -44l18 82l76 44l43 195q12 54 12 77q0 14 -6 26t-20 27
q68 0 106.5 0.5t59.5 2.5t32 6t25 11l-58 -262z" />
    <glyph glyph-name="eth" unicode="&#xf0;" horiz-adv-x="587" 
d="M325 403q-23 0 -43.5 -18t-35.5 -49.5t-24 -73t-9 -87.5q0 -99 60 -99q52 0 81 77q6 16 11.5 36t9.5 40.5t6 41t2 37.5q0 95 -58 95zM275 528l-24 44l93 51q-5 19 -8.5 28l-9.5 24l70 38l21.5 -22t15.5 -18l86 47l24 -43l-79 -45q50 -72 77.5 -159.5t27.5 -174.5
q0 -82 -33.5 -151.5t-93.5 -111.5q-70 -48 -173 -48q-119 0 -179.5 52t-60.5 154q0 61 20 115.5t54.5 95t80.5 64t99 23.5q27 0 47 -6t41 -20q-2 32 -6 61t-9 47z" />
    <glyph glyph-name="thorn" unicode="&#xfe;" horiz-adv-x="601" 
d="M236 118q14 -8 24 -11.5t24 -3.5q47 0 72 46q16 30 24.5 70t8.5 82q0 36 -14.5 56t-40.5 20q-17 0 -29 -7t-22.5 -24.5t-19.5 -47.5t-19 -76l-63 -283q-7 -32 -11 -58.5t-4 -40.5q0 -13 3.5 -25t12.5 -29h-246q13 12 23 25t17.5 30t14 40.5t14.5 57.5l138 625
q4 22 7 34.5t4 20t1.5 12t0.5 10.5q0 14 -6 26.5t-20 26.5q68 0 106 0.5t59.5 2.5t32.5 6t25 11l-64 -291q28 36 61 52.5t78 16.5q73 0 111.5 -45.5t38.5 -130.5q0 -60 -18 -116t-51 -101q-67 -92 -181 -92q-26 0 -42 3.5t-36 12.5z" />
    <glyph glyph-name="onesuperior" unicode="&#xb9;" horiz-adv-x="443" 
d="M155 620q46 7 81 16t64 22t55.5 31t54.5 44l-83 -372q-5 -23 -5 -38q0 -11 4.5 -20t18.5 -25h-208q13 10 22.5 19t15.5 18t10 20t7 26l52 231z" />
    <glyph glyph-name="twosuperior" unicode="&#xb2;" horiz-adv-x="443" 
d="M383 279h-353l27 25.5l28 28l46 46.5l82 82l50.5 51.5t30.5 35t15 24.5t4 20q0 17 -15 26.5t-41 9.5q-32 0 -59 -9.5t-65 -32.5l44 93q29 14 55.5 19t62.5 5q72 0 112 -28t40 -79q0 -32 -17 -64t-58 -74q-4 -5 -8 -9l-15 -14.5l-33.5 -31.5l-62.5 -59h25q25 0 44.5 1
t36.5 3.5t34.5 7t39.5 11.5z" />
    <glyph glyph-name="threesuperior" unicode="&#xb3;" horiz-adv-x="443" 
d="M167 543q17 -4 27.5 -5t24.5 -1q46 0 70.5 14t24.5 40q0 21 -18 33.5t-49 12.5q-26 0 -50.5 -9t-55.5 -29l47 94q23 5 44.5 7.5t50.5 2.5q82 0 125 -26.5t43 -77.5q0 -40 -25.5 -62.5t-84.5 -34.5q82 -22 82 -95q0 -32 -15.5 -57t-44 -43t-69 -27.5t-90.5 -9.5
q-33 0 -59 3.5t-56 13.5l-19 88q31 -21 57 -30t58 -9q47 0 74 20t27 54q0 64 -95 64q-11 0 -19 -0.5t-21 -2.5z" />
    <glyph glyph-name="periodcentered" unicode="&#x2219;" horiz-adv-x="324" 
d="M178 348q42 0 66 -23t24 -64q0 -49 -29 -80t-75 -31q-43 0 -68.5 26t-25.5 70q0 45 30 73.5t78 28.5z" />
    <glyph glyph-name="sfthyphen" unicode="&#xad;" horiz-adv-x="365" 
d="M209 287q28 0 48 1t36 3.5t30 7t30 11.5l-91 -119h-48q-44 0 -72 -1t-48 -3t-36.5 -7t-36.5 -12l93 119h95z" />
    <glyph glyph-name="minus" unicode="&#x2212;" 
d="M115 396h487v-97h-487v97z" />
    <glyph glyph-name="multiply" unicode="&#xd7;" 
d="M206 126l-69 69l152 153l-152 152l69 69l152 -153l153 153l68 -69l-152 -152l152 -153l-68 -69l-153 153z" />
    <glyph glyph-name="onehalf" unicode="&#xbd;" horiz-adv-x="1031" 
d="M893 0h-353l19.5 18l17.5 16.5l20 19.5l27.5 28l40 41l58.5 59l49.5 50.5t31 35.5t15.5 25.5t4 19.5q0 17 -15 26.5t-41 9.5q-32 0 -59 -9t-65 -33l45 94q29 14 55 19t63 5q71 0 111 -28t40 -78q0 -33 -17 -64.5t-57 -74.5l-9 -9l-15 -14.5l-33 -31.5l-62 -60h25
q25 0 44 1t36.5 3.5t35 7t38.5 11.5zM803 695l-471 -695h-100l471 695h100zM138 620q46 7 81 16t64 22t55.5 31t54.5 44l-83 -372q-5 -23 -5 -38q0 -11 4.5 -20t18.5 -25h-208q13 10 22.5 19t15.5 18t10 20t7 26l52 231z" />
    <glyph glyph-name="onequarter" unicode="&#xbc;" horiz-adv-x="1031" 
d="M762 156l43 195l-151 -195h108zM517 91l269 326h165l-7 -9t-5 -9.5t-4.5 -13.5t-5.5 -21l-46 -208h16q23 0 41 5t38 16l-45 -86h-64l-2 -8q-3 -12 -4.5 -23t-1.5 -17q0 -10 4.5 -19t18.5 -24h-194q26 18 36.5 33t17.5 43l4 15h-231zM799 695l-471 -695h-100l471 695h100z
M127 620q46 7 81 16t64 22t55.5 31t54.5 44l-83 -372q-5 -23 -5 -38q0 -11 4.5 -20t18.5 -25h-208q13 10 22.5 19t15.5 18t10 20t7 26l52 231z" />
    <glyph glyph-name="threequarters" unicode="&#xbe;" horiz-adv-x="1031" 
d="M790 156l43 195l-151 -195h108zM544 91l269 326h165q-8 -9 -11.5 -19t-9.5 -34l-46 -208h16q23 0 41 5t38 16l-46 -86h-64l-2 -8q-6 -26 -6 -40q0 -10 5 -19.5t19 -23.5h-194q13 9 21.5 16.5t14.5 16t10 19t8 24.5l3 15h-231zM826 695l-471 -695h-99l471 695h99zM167 543
q17 -4 27.5 -5t24.5 -1q46 0 70.5 14t24.5 40q0 21 -18 33.5t-49 12.5q-26 0 -50.5 -9t-55.5 -29l47 94q23 5 44.5 7.5t50.5 2.5q82 0 125 -26.5t43 -77.5q0 -40 -25.5 -62.5t-84.5 -34.5q82 -22 82 -95q0 -32 -15.5 -57t-44 -43t-69 -27.5t-90.5 -9.5q-33 0 -59 3.5
t-56 13.5l-19 88q31 -21 57 -30t58 -9q47 0 74 20t27 54q0 64 -95 64q-11 0 -19 -0.5t-21 -2.5z" />
    <glyph glyph-name="brokenbar" unicode="&#xa6;" horiz-adv-x="521" 
d="M382 160v-334h-193v334h193zM382 695v-375h-193v375h193z" />
  </font>
</defs>
</svg>
